<?xml version="1.0" standalone="no"?>
<!DOCTYPE svg PUBLIC "-//W3C//DTD SVG 1.1//EN" "http://www.w3.org/Graphics/SVG/1.1/DTD/svg11.dtd" >
<svg xmlns="http://www.w3.org/2000/svg" xmlns:xlink="http://www.w3.org/1999/xlink" version="1.1">
<metadata></metadata>
<defs>
<font id="walbaumoriginalbold" horiz-adv-x="948" >
<font-face units-per-em="2048" ascent="1638" descent="-410" />
<missing-glyph horiz-adv-x="512" />
<glyph horiz-adv-x="0" />
<glyph unicode="&#xd;" horiz-adv-x="512" />
<glyph unicode=" "  horiz-adv-x="512" />
<glyph unicode="&#x09;" horiz-adv-x="512" />
<glyph unicode="&#xa0;" horiz-adv-x="512" />
<glyph unicode="!" horiz-adv-x="634" d="M236 115q0 53 43 96t98 43q53 0 91 -42t38 -95q0 -55 -39 -94t-92 -39q-55 0 -97 37.5t-42 93.5zM242 1303q0 68 34.5 108.5t104.5 40.5q63 0 95 -44t32 -110v-24q-12 -125 -37 -309.5t-37 -309.5q-18 -186 -18 -309l-80 2q0 188 -31 431t-59 468z" />
<glyph unicode="&#x22;" horiz-adv-x="888" d="M41 1296q0 74 43 115t117 41q88 0 141 -76q47 -68 47 -159q0 -123 -63 -238q-45 -80 -152 -197l-55 49q90 129 102 150q59 98 60 166q0 23 -8.5 43t-24.5 20t-46 -9t-42 -9q-41 0 -80 30.5t-39 73.5zM471 1309q0 66 44 105.5t112 39.5q90 0 143 -76q47 -68 47 -161 q0 -117 -65 -234q-43 -76 -146 -197l-61 52q74 90 108 149q55 94 56 174q0 14 -9.5 32.5t-23.5 18.5q-10 0 -55 -10q-18 -4 -35 -4q-43 0 -79 34t-36 77z" />
<glyph unicode="#" horiz-adv-x="991" d="M0 422v137h219l53 395h-219v140h240l59 422h142l-60 -422h254l60 422h141l-60 -422h170v-138h-190l-55 -397h188v-137h-207l-59 -422h-141l59 422h-254l-59 -422h-142l60 422h-199zM360 559h252l56 397h-252z" />
<glyph unicode="$" horiz-adv-x="1105" d="M-49 272q0 53 37 90t88 37q94 0 142 -181t251 -181v573q-172 68 -211 88q-113 57 -170 129q-70 88 -70 215q0 199 132 306q106 86 319 122v191h100v-191q160 0 285 -57q164 -76 164 -215q0 -51 -33 -79.5t-84 -28.5q-92 0 -130 146t-202 165v-529q180 -74 234 -102 q121 -66 180 -147q72 -98 72 -246q0 -197 -152 -307q-137 -100 -336 -101v-233h-98v233q-188 0 -328 60q-190 82 -190 243zM254 1153q0 -82 72 -147q47 -43 143 -91v484q-92 -18 -153.5 -86t-61.5 -160zM565 39q96 20 166 86q78 74 78 166q0 100 -74 178q-66 70 -170 96 v-526z" />
<glyph unicode="%" horiz-adv-x="1503" d="M-66 946q0 182 62 305q80 162 244 162q162 0 241 -162q61 -125 62 -307q0 -176 -66 -299q-84 -158 -244 -158q-158 0 -237 160q-61 123 -62 299zM117 952q0 -166 16 -256q26 -149 100 -149q80 0 109 133q16 76 16 199v42.5t2 53.5q0 160 -18 246q-29 137 -100 137 q-80 0 -109 -141q-16 -80 -16 -205v-60zM358 4l584 1397h113l-584 -1397h-113zM870 453q0 178 62 301q80 159 242 159t241 -157q61 -123 62 -305q0 -178 -66 -308q-82 -162 -244 -161q-160 0 -237 165q-59 125 -60 306zM1051 391q0 -180 30.5 -263t96.5 -83q86 0 108 195 q8 74 8 176v55q0 193 -29.5 290t-93.5 97q-74 0 -102 -137q-18 -88 -18 -246v-84z" />
<glyph unicode="&#x26;" horiz-adv-x="1542" d="M-16 373q0 117 67 209q57 78 164 145q59 37 199 107q-49 123 -56 143q-24 75 -24 151q0 160 101.5 246t264.5 86q115 0 194 -63.5t79 -173.5q0 -117 -107 -215q-41 -39 -204 -146q66 -125 148.5 -269t162.5 -267q80 111 110 163q61 109 62 185q0 53 -36 68.5t-97 15.5 h-25l2 69q59 0 160.5 -5t120.5 -5h110q47 6 68 8v-67h-14q-131 0 -187 -96q-51 -133 -92 -207q-27 -51 -65 -105q-29 -41 -78 -98q49 -74 105.5 -112t137.5 -38q94 0 160 105q57 92 58 194h79q0 -182 -105.5 -304t-285.5 -122q-100 0 -168.5 32t-154.5 106 q-113 -70 -208 -104t-212 -34q-184 0 -305 105q-129 111 -129 293zM219 451q0 -143 96.5 -250t237.5 -107q55 0 110.5 19.5t116.5 56.5q-100 139 -184 284.5t-158 311.5q-102 -57 -155 -127q-63 -82 -64 -188zM551 1225q0 -55 24.5 -143.5t51.5 -143.5q98 63 145 115 q70 78 70 168q0 68 -41 121t-107 53q-72 0 -107.5 -49.5t-35.5 -120.5z" />
<glyph unicode="'" horiz-adv-x="501" d="M104 1022q0 100 39 188t179 246l53 -49q-55 -47 -107.5 -149.5t-52.5 -172.5q0 -53 33 -53q10 0 42 7.5t48 7.5q53 0 83 -37t30 -92t-49.5 -93.5t-106.5 -38.5q-88 0 -139.5 73t-51.5 163z" />
<glyph unicode="(" horiz-adv-x="634" d="M82 442q0 324 125 564q119 229 381 436l61 -72q-190 -197 -275 -404.5t-85 -480.5q0 -336 69 -544q80 -238 291 -465l-59 -74q-262 233 -379 459q-129 250 -129 581z" />
<glyph unicode=")" horiz-adv-x="634" d="M-43 1366l68 80q258 -225 376 -459q129 -252 129 -577q0 -326 -122.5 -562.5t-387.5 -445.5l-59 78q195 182 283 418q82 219 82 503q0 297 -82 521q-88 240 -287 444z" />
<glyph unicode="*" horiz-adv-x="833" d="M4 1196q0 27 24.5 59.5t49.5 32.5q55 0 137 -86t121 -94l18 10q4 10 4 31q0 39 -24.5 114.5t-24.5 116.5q0 80 88 80q86 0 86 -84q0 -41 -25.5 -117.5t-25.5 -113.5l6 -27l15 -8l6 -2q29 14 88 72q115 115 153 114q41 0 66 -28.5t25 -71.5q0 -57 -141.5 -93t-151.5 -71 l4 -12q137 -47 213 -75t76 -77q0 -33 -21.5 -67.5t-54.5 -34.5q-53 0 -138 91t-118 91q-23 0 -23 -14q0 -47 25.5 -136t25.5 -132q0 -33 -27.5 -52.5t-62.5 -19.5q-84 0 -84 80q0 37 15 88q33 119 32 149q0 10 -10 27l-6 6q-23 0 -116 -91t-130 -91q-33 0 -61.5 30.5 t-28.5 65.5q0 63 144.5 101t150.5 67q-6 31 -152.5 70t-146.5 102z" />
<glyph unicode="+" horiz-adv-x="1267" d="M10 514v164h510v510h164v-510h514v-164h-514v-514h-164v514h-510z" />
<glyph unicode="," horiz-adv-x="552" d="M82 115q0 68 49 105.5t119 37.5q82 0 133 -82q45 -72 45 -160q0 -94 -37 -180q-45 -106 -176 -252l-55 47q57 70 102 148q59 104 60 168q0 20 -7.5 41.5t-25.5 21.5q-16 0 -47 -8t-47 -8q-47 0 -80 37t-33 84z" />
<glyph unicode="-" horiz-adv-x="673" d="M23 379v162h598v-162h-598z" />
<glyph unicode="." horiz-adv-x="552" d="M145 125q0 59 41.5 96t100.5 37q53 0 90 -43t37 -96t-39 -92t-92 -39q-55 0 -96.5 41t-41.5 96z" />
<glyph unicode="/" horiz-adv-x="833" d="M-51 8l727 1428h145l-723 -1428h-149z" />
<glyph unicode="0" horiz-adv-x="989" d="M4 690q0 291 98 484q128 249 392 249q244 0 360 -256q88 -193 88 -471q0 -279 -96 -469q-125 -248 -377 -247q-246 0 -369 245q-96 193 -96 465zM272 641q0 -244 29 -377q45 -215 168 -215q35 0 66 19q84 39 118 260q23 147 23 379v124q0 203 -25 312q-47 211 -178 211 q-129 0 -176 -250q-25 -131 -25 -354v-109z" />
<glyph unicode="1" horiz-adv-x="989" d="M168 1020l399 385h90l2 -1245q0 -53 36 -73.5t96 -20.5l98 4v-68q-119 0 -356.5 2t-356.5 2l2 64l92 -2q88 0 117 32.5t29 122.5v946l-199 -200z" />
<glyph unicode="2" horiz-adv-x="989" d="M-74 51q86 68 183 174q111 129 165 193q186 211 240 291q131 192 131 346q0 119 -59 200q-66 90 -183 91q-135 0 -227 -94.5t-92 -229.5q0 -92 33 -162q27 -57 96 -137l-51 -55q-76 92 -111 159q-45 88 -45 187q0 182 128 295.5t312 113.5q201 0 326 -92 q141 -104 141 -297t-231 -391q-158 -123 -223 -178q-156 -125 -273 -254l453 -2q121 0 170 61q14 18 78 172h69l-153 -440h-852z" />
<glyph unicode="3" horiz-adv-x="989" d="M-33 266l66 25q80 -131 129 -174q78 -66 203 -66q137 0 204 127q55 104 56 254q0 158 -37 252q-55 143 -187 143q-63 0 -135 -47q-61 -39 -108 -98l-56 49l510 488h-75q-39 0 -130.5 -4.5t-97.5 -4.5q-74 0 -105.5 -23.5t-58.5 -94.5h-73l141 311h676l2 -27 q-51 -45 -177 -158.5t-176.5 -159.5t-172.5 -165l108 6q199 0 307.5 -122t108.5 -322q0 -223 -139.5 -350.5t-364.5 -127.5q-303 0 -418 289z" />
<glyph unicode="4" horiz-adv-x="989" d="M-45 502v78l596 833h156v-827h77q53 0 74 35q14 25 14 79q0 10 -1 25.5t-1 36.5h70v-416h-68v33q0 76 -21.5 99.5t-96.5 23.5h-49v-502h-234v502h-516zM47 578l428 2v598z" />
<glyph unicode="5" horiz-adv-x="989" d="M-18 264l63 29q61 -121 129 -174q82 -66 205 -66q152 0 219 144q49 104 49 276q0 158 -45 256q-63 135 -203 135q-109 0 -190 -90q-70 -76 -103 -194l-71 16l215 770h432q61 0 90 29q18 20 43 88h76q-74 -203 -90 -228q-63 -92 -215 -92h-310l-98 -334q59 72 140 104 t182 32q203 0 315 -142q102 -129 103 -340q0 -236 -132.5 -372t-365.5 -136q-150 0 -270.5 76t-167.5 213z" />
<glyph unicode="6" horiz-adv-x="989" d="M8 641q0 317 119 524q147 256 442 256q121 0 213 -49q117 -61 117 -172q0 -41 -29.5 -63.5t-72.5 -22.5q-53 0 -98.5 120t-151.5 120q-147 0 -223 -213q-47 -133 -66 -340q61 92 123 133q70 47 172 47q182 0 291 -150q98 -135 98 -325q0 -229 -115 -371 q-125 -154 -348 -153q-248 0 -370 217q-100 176 -101 442zM268 481q0 -145 43 -266q59 -166 178 -166q125 0 168 164q25 92 25 264q0 156 -31 258q-49 162 -166 162t-174 -158q-43 -117 -43 -258z" />
<glyph unicode="7" horiz-adv-x="989" d="M29 1067l133 336h819v-64q-219 -301 -339 -623.5t-169 -711.5h-287q49 229 123 412q66 164 180 350q86 139 240 356l68 90l-473 9q-92 0 -138.5 -32t-85.5 -122h-71z" />
<glyph unicode="8" horiz-adv-x="989" d="M6 360q0 145 80 238q74 84 217 135q-106 55 -166 129q-69 88 -69 199q0 158 113.5 257t275.5 99q164 0 274 -65q137 -82 137 -232q0 -113 -67 -188q-55 -61 -170 -113q158 -106 209 -162q94 -102 94 -241q0 -197 -133 -320t-332 -123q-180 0 -315 101q-147 111 -148 286z M203 362q0 -129 75.5 -222t204.5 -93q113 0 178.5 81t65.5 198q0 115 -127 219q-57 47 -229 145q-78 -57 -123 -143.5t-45 -184.5zM260 1157q0 -98 154 -207q14 -10 133 -86q72 68 96 105q41 61 41 137q0 100 -59.5 172t-157.5 72q-84 0 -145.5 -55.5t-61.5 -137.5z" />
<glyph unicode="9" horiz-adv-x="989" d="M-4 909q0 219 117 361q127 154 340 153q252 0 376 -219q100 -176 101 -450q0 -322 -125 -525q-152 -246 -453 -245q-109 0 -200 51q-113 61 -113 162q0 33 23.5 64.5t56.5 31.5q80 0 123 -120t137 -120q160 0 233 215q10 31 72 353q-80 -96 -92 -111q-82 -86 -205 -86 q-186 0 -295 156q-96 137 -96 329zM254 950q0 -168 29 -268q47 -168 172 -168q115 0 170 154q41 113 41 252q0 217 -70 335q-59 100 -160 101q-113 0 -155 -156q-27 -96 -27 -250z" />
<glyph unicode=":" horiz-adv-x="634" d="M246 115q0 61 37 102t98 41q55 0 94 -41t39 -96q0 -61 -41 -98t-102 -37q-43 0 -84 43t-41 86zM248 645q0 59 37 100t94 41q59 0 98 -36.5t39 -98.5q0 -57 -40 -95t-97 -38q-53 0 -92 37t-39 90z" />
<glyph unicode=";" horiz-adv-x="634" d="M176 113q0 68 46 105.5t116 37.5q86 0 139 -80q47 -72 47 -162q0 -102 -67.5 -230t-149.5 -202l-51 51q92 129 104 152q53 92 54 176q0 14 -9.5 32.5t-23.5 18.5q-12 0 -37 -10t-37 -10q-55 0 -93 31.5t-38 89.5zM217 666q0 49 46 87t99 38q49 0 88 -41t39 -93 q0 -55 -39.5 -97t-95.5 -42q-59 0 -98 43t-39 105z" />
<glyph unicode="&#x3c;" horiz-adv-x="1085" d="M20 455v127l1041 471v-140l-871 -395l871 -395v-139z" />
<glyph unicode="=" horiz-adv-x="1267" d="M-90 330v159h1364v-159h-1364zM-90 700v160h1364v-160h-1364z" />
<glyph unicode="&#x3e;" horiz-adv-x="1085" d="M33 -16v139l870 395l-870 395v140l1040 -471v-127z" />
<glyph unicode="?" horiz-adv-x="870" d="M156 1290q0 84 92 129q72 35 168 35q207 0 326.5 -113.5t119.5 -318.5q0 -193 -84 -286t-276 -130q-86 -16 -117 -46t-31 -114l-6 -122h-84l-4 90l6 86q14 119 121 170q217 102 217 395q0 121 -26 199q-41 121 -138 120q-68 0 -80 -102t-94 -102q-111 0 -110 110z M180 119q0 53 40 93t93 40t93 -40t40 -93q0 -57 -36.5 -96t-96.5 -39q-53 0 -93 39.5t-40 95.5z" />
<glyph unicode="@" horiz-adv-x="2078" d="M301 739q0 317 226.5 543.5t545.5 226.5q285 0 490 -174q215 -184 215 -465q0 -207 -140 -391q-152 -201 -350 -200q-57 0 -94 34.5t-37 94.5q-53 -57 -117.5 -93t-132.5 -36q-131 0 -216 97t-85 230q0 215 127 383q137 182 346 182q80 0 140.5 -42t95.5 -117l41 127h141 q-76 -252 -149 -504q-14 -53 -25.5 -101.5t-11.5 -62.5q0 -25 5 -42t38 -17q123 0 213 163q78 143 78 279q0 240 -164 384t-408 144q-270 0 -446 -190.5t-176 -464.5q0 -270 182 -454.5t457 -184.5q143 0 275 61.5t220 172.5h137q-100 -168 -270 -264.5t-369 -96.5 q-328 0 -555 225.5t-227 552.5zM774 625q0 -84 45 -141.5t127 -57.5q125 0 219 145q86 133 86 265q0 72 -48 130t-120 58q-131 0 -225 -137q-84 -123 -84 -262z" />
<glyph unicode="A" horiz-adv-x="1345" d="M-94 2v53q88 0 134 35t87 121q74 160 166 446q76 236 90 277q68 195 90 258q66 172 96 258h117q18 -74 53 -167t68 -179q47 -133 111 -328q53 -166 106 -330q25 -78 49 -153q29 -78 69 -142.5t79 -79t122 -14.5l-2 -57l-360 8l-313 -6v55q80 0 108 11q57 20 58 86 q0 63 -37 168q-18 49 -35 95t-37 60.5t-66 14.5h-272q-31 0 -52.5 -21.5t-31.5 -54.5l-65 -213q-8 -29 -10.5 -38t-2.5 -24q0 -55 66 -71q31 -8 108 -9l-2 -61l-221 6zM375 582q2 -2 26 -15h263q39 16 38 39q0 66 -96 324q-35 92 -69 184q-31 -59 -99 -256 q-73 -208 -73 -249q0 -19 10 -27z" />
<glyph unicode="B" horiz-adv-x="1306" d="M-49 2v57q123 0 153 19q49 29 50 143v932q0 115 -11 147q-27 80 -190 80l-2 60q51 0 172 -4t129 -4q121 0 194 2q299 8 328 8q145 0 243.5 -88t98.5 -232q0 -162 -98 -245q-80 -68 -252 -107q211 -18 315 -90q133 -92 133 -289q0 -190 -119.5 -291.5t-314.5 -101.5 q-137 0 -413.5 2t-415.5 2zM414 944q0 -70 8 -92q17 -47 72 -47h63q139 0 212 75.5t73 215.5q0 123 -78 196.5t-199 73.5q-94 0 -122.5 -26.5t-28.5 -79.5v-316zM416 219q0 -88 32.5 -116.5t120.5 -28.5q168 0 261.5 81t93.5 244q0 166 -103 250q-94 76 -266 76 q-90 0 -114.5 -26.5t-24.5 -120.5v-359z" />
<glyph unicode="C" horiz-adv-x="1345" d="M16 678q0 371 204 583t575 212q129 0 242.5 -24t222.5 -77v-340h-58q-53 178 -137 262q-100 98 -274 99q-244 0 -369 -242q-100 -195 -100 -461q0 -264 96 -432q121 -209 366 -209q205 0 306 131q74 96 124 322h64l12 -357q-117 -94 -250 -136t-292 -42 q-328 0 -530 191.5t-202 519.5z" />
<glyph unicode="D" horiz-adv-x="1542" d="M-68 2v59q121 0 154 23q45 31 45 143l6 201l4 399v107v29v38q0 121 -3 202t-9 100q-27 53 -70 64t-122 11l-3 62q66 0 169.5 -5t119.5 -5q123 0 199 2q305 8 336 8q317 0 499.5 -192.5t182.5 -512.5q0 -336 -162 -532q-176 -213 -506 -213q-117 0 -250 4q-336 10 -418 10 zM399 504q0 -43 2 -131t2 -133q0 -111 39 -139.5t156 -28.5q289 0 424 176q121 158 121 457q0 283 -111 454q-133 207 -399 207q-152 0 -184 -25q-45 -33 -46 -174l-4 -325v-338z" />
<glyph unicode="E" horiz-adv-x="1267" d="M-45 -4v63q135 0 170 39t35 178v943q0 106 -47 137q-34 22 -141 22h-9v60h1145v-394l-61 3q-31 170 -127.5 241.5t-274.5 71.5h-65q-94 0 -125 -31t-31 -129v-352q0 -53 15.5 -70.5t68.5 -17.5h41q127 0 178 64.5t51 195.5l-2 31h70v-641h-70q0 150 -53 209t-201 59 q-66 0 -82 -21.5t-16 -91.5l-2 -321q0 -78 25.5 -118t101.5 -40h178q168 0 282.5 86t151.5 246h60l-31 -412l-252 -2l-731 2q-53 0 -143.5 -5t-108.5 -5z" />
<glyph unicode="F" horiz-adv-x="1187" d="M-33 4v59q121 0 152 19q45 29 45 139q2 33 5 63.5t3 71.5v791q0 152 -25 184q-33 45 -180 45v62l649 -2q96 0 289 2t289 2l-2 -178l2 -222l-59 2q-55 190 -131 252q-84 68 -281 68l-166 -6q-74 0 -97.5 -30t-23.5 -107v-355q0 -74 23.5 -88t103.5 -14q154 0 211 72 q51 63 51 223l60 -2l-13 -430q0 -68 3 -119t10 -109l-68 2l4 37q0 121 -57 184.5t-176 63.5l-60 2q-61 0 -76.5 -22.5t-15.5 -90.5l2 -368q0 -119 92 -135q59 -6 121 -13l2 -55l-342 6z" />
<glyph unicode="G" horiz-adv-x="1503" d="M10 686q0 365 206 574.5t572 209.5q145 0 282.5 -26.5t242.5 -87.5l-2 -154v-75.5t8 -106.5h-66q-47 176 -143 266q-109 102 -281 103q-266 0 -401 -209q-113 -176 -113 -459q0 -281 97 -457q123 -223 381 -223q176 0 241 121q47 88 47 280q0 168 -40 202t-212 34v59h695 v-61l-54 4q-45 0 -74.5 -16.5t-49.5 -57.5q0 -57 -4.5 -192t-4.5 -148l2 -141q-154 -88 -283.5 -124t-303.5 -36q-336 0 -539 192.5t-203 528.5z" />
<glyph unicode="H" horiz-adv-x="1583" d="M-72 -4v63q119 0 152 19q53 31 53 139v981q0 121 -37 149.5t-166 28.5v64q76 0 204 -5t155 -5q41 0 156.5 7t175.5 7l-3 -64l-43 -2q-117 0 -147 -47q-22 -34 -22 -152v-10v-290q0 -72 30 -91q20 -12 105 -12h420q70 0 90 22.5t20 94.5l-2 315q0 117 -47 148 q-34 22 -152 22h-10l2 60l228 -6h229q37 0 126 4t95 4l-2 -62h-37q-117 0 -145 -49q-20 -35 -21 -162v-958q0 -98 39 -127q27 -20 113 -21h51v-65l-334 12q-61 0 -201.5 -4t-148.5 -4v59q135 0 164 21q43 31 43 162v356q0 59 -17.5 78.5t-52.5 19.5h-485q-47 0 -72.5 -16 t-25.5 -62v-432q0 -78 53 -106q35 -18 119 -19h43l-2 -61l-228 6h-268q-45 0 -115.5 -5t-81.5 -5z" />
<glyph unicode="I" horiz-adv-x="710" d="M-10 -2v61q131 0 166 27q43 33 43 162v1007q0 82 -66 109q-41 16 -139 16l2 58q63 0 210.5 -4t155.5 -4q72 0 117 2q180 8 197 8l-2 -56l-51 -2q-82 0 -118 -28.5t-36 -110.5v-1048q0 -94 59 -119q31 -12 144 -13l2 -67q-43 0 -131 6t-133 6h-95q-74 0 -190.5 -5 t-134.5 -5z" />
<glyph unicode="J" horiz-adv-x="909" d="M-41 186q0 135 135 136q53 0 88 -37t35 -92q0 -16 -8 -51.5t-8 -51.5q0 -25 30.5 -38t59.5 -13q80 0 120 89t40 284l-5 172q0 154 -2 309.5t-4 310.5q0 115 -39 145.5t-159 30.5v58l403 -6l270 4l3 -62l-50 2q-84 0 -119.5 -28.5t-35.5 -112.5v-889q0 -197 -101.5 -288 t-300.5 -91q-137 0 -227 41q-125 57 -125 178z" />
<glyph unicode="K" horiz-adv-x="1384" d="M-51 2v59q127 0 165 42t38 167v906q0 127 -35 161.5t-166 34.5v66q63 0 213.5 -4t163.5 -4q66 0 106 2q166 8 182 8v-68h-38q-82 0 -120 -28.5t-38 -108.5v-340q0 -57 11 -84t61 -27q39 0 76.5 34t98 126t121.5 182q86 135 86 183q0 41 -41.5 52t-99.5 11v66l252 -6 l246 6v-66q-125 0 -205 -78q-16 -16 -135 -180l-195 -268q47 -78 110.5 -157t127.5 -154l211 -273q111 -145 135 -162q49 -35 127 -43v-59l-332 8l-319 -6v61h35q39 0 74.5 12.5t35.5 45.5q0 31 -27 78q-10 18 -90 131q-117 162 -233 325q-16 20 -34.5 33.5t-43.5 13.5 q-39 0 -49 -28.5t-10 -75.5v-326q0 -141 30.5 -169.5t173.5 -41.5v-59l-393 6z" />
<glyph unicode="L" horiz-adv-x="1306" d="M-43 -8v67q141 0 172 33t31 178v883q0 133 -29 170q-37 49 -170 49v66l324 -6l362 6v-62q-137 0 -175 -33.5t-38 -164.5v-975q0 -121 115 -121h207q211 0 313 86t141 295l74 -2q-25 -272 -27 -291q-10 -123 -10 -178q-98 0 -329.5 4t-247.5 4h-486q-39 0 -130 -4t-97 -4z " />
<glyph unicode="M" horiz-adv-x="1898" d="M-92 2v61q129 0 155 19q41 29 41 143l7 172v832q0 104 -52 133q-33 18 -147 18v60h549q106 -266 143 -357q127 -309 146 -356q96 -238 141 -360l414 1069h550v-56h-55q-76 0 -108.5 -28.5t-32.5 -104.5v-1001q0 -139 29.5 -164t169.5 -25l2 -59q-61 0 -207 4t-158 4 q-76 0 -190.5 -6t-116.5 -6v63q125 0 162 27q47 35 47 160v1001l-6 43l-11 12q-27 -20 -147 -319q-102 -252 -225 -578q-86 -225 -150 -401h-98q-39 98 -166 432q-100 262 -170 432q-98 240 -191 424l-12 6q-8 -4 -10 -18t-2 -27l-2 -1007q0 -113 43 -149t160 -36l2 -63 q-125 0 -252 2t-252 4z" />
<glyph unicode="N" horiz-adv-x="1503" d="M-63 2v59q131 0 166.5 38t35.5 171q4 35 4 77v67l-2 207q0 113 4.5 370.5t4.5 274.5q0 70 -50 94q-33 16 -108 16h-33v62h430q399 -512 793 -1032v708q0 174 -29 213q-35 47 -195 47l3 64q49 0 164.5 -4t121.5 -4q39 0 133.5 4t100.5 4v-66q-125 0 -154 -16 q-47 -27 -47 -146v-1222h-98l-940 1218v-938q0 -127 38.5 -166t165.5 -39l3 -67q-55 0 -185.5 4t-142.5 4z" />
<glyph unicode="O" horiz-adv-x="1503" d="M8 696q0 346 172 553q184 221 525 221q344 0 528 -198.5t184 -544.5q0 -350 -174 -551q-184 -213 -530 -213q-334 0 -519.5 198.5t-185.5 534.5zM311 717q0 -354 125 -533q103 -147 281 -147q233 0 330 235q67 164 67 431v8q0 291 -61 446q-96 242 -340 242 q-231 0 -332 -240q-70 -168 -70 -442z" />
<glyph unicode="P" horiz-adv-x="1187" d="M-35 -4v67l49 -2q90 0 122 36t32 130v987q0 106 -44 134t-157 28l-2 64l252 -2h168l393 2q186 0 299 -115t113 -301q0 -180 -116 -291.5t-298 -111.5q-33 0 -98.5 4t-99.5 4q-35 0 -63 -3t-48.5 -11.5t-25.5 -24t-5 -43.5v-365q0 -74 49 -100q35 -18 111 -19h59v-69 q-82 0 -252 8t-256 8q-61 0 -99 -2t-83 -12zM434 1270l4 -492q0 -84 82 -84h58q158 0 239.5 84t81.5 242q0 164 -83 254t-245 90q-61 0 -99 -19.5t-38 -74.5z" />
<glyph unicode="Q" horiz-adv-x="1503" d="M8 690q0 348 166 557q180 227 522 228q356 0 543 -207q178 -199 178 -559q0 -322 -166 -525q-180 -219 -497 -219l-74 2q98 -39 199 -80q82 -47 121.5 -175t41.5 -132q44 -96 189 -96v-64h-223q-221 0 -277 193q-74 260 -162 326q-23 16 -67 34q-23 10 -45 19 q-227 92 -338 269t-111 429zM309 711q0 -358 125 -535q103 -145 283 -145q236 0 332 243q65 164 65 439v8q0 291 -65 446q-98 236 -349 236q-227 0 -323 -248q-68 -172 -68 -444z" />
<glyph unicode="R" horiz-adv-x="1384" d="M-43 -2v63q33 0 51.5 2.5t59.5 8.5t55 18t26.5 53t15.5 85t3 108l-6 213l2 311v88v49q0 131 -3 201t-14 96q-23 55 -68.5 70.5t-121.5 15.5v56h172l592 4q180 0 280 -76q117 -88 117 -262q0 -160 -106 -248q-92 -76 -262 -96q248 0 350 -140q59 -80 93 -274t93 -242 q16 -14 28.5 -19t43.5 -11l67 -11v-59h-258q-188 0 -239 184q-33 170 -64 342q-61 186 -270 187h-14q-78 0 -103 -8q-53 -18 -53 -132l2 -354q0 -78 10 -100q18 -37 86 -49q4 0 40 -4.5t73 -6.5l-2 -61l-369 6q-53 0 -176 -4t-131 -4zM416 1006q0 -104 15 -153.5t41 -53.5 t55.5 -6t56.5 -2q133 0 194 81q55 74 56 211q0 131 -50 201q-57 82 -184 82q-109 0 -146.5 -34t-37.5 -140v-186z" />
<glyph unicode="S" horiz-adv-x="1105" d="M31 96v359l67 2q27 -188 136.5 -299t295.5 -111q115 0 195 68.5t80 181.5q0 133 -195 242q-182 94 -362 188q-195 131 -195 315q0 205 135 320q127 106 338 106q125 0 223.5 -30.5t215.5 -102.5v-278h-56q-51 158 -118 233q-90 102 -236 103q-106 0 -185 -63.5 t-79 -168.5q0 -117 194 -219q182 -96 365 -190q197 -137 197 -334q0 -221 -150 -340q-139 -111 -367 -111q-154 0 -260 25q-131 31 -239 104z" />
<glyph unicode="T" horiz-adv-x="1306" d="M-90 1047l8 387q84 0 282.5 -4.5t215.5 -4.5q152 0 504 4.5t374 4.5l11 -387h-66q-57 180 -115 235q-76 74 -250 74q-78 0 -106.5 -24.5t-28.5 -102.5v-1016q0 -96 41 -127q31 -23 119 -23h53l-2 -69q-33 0 -100.5 6t-101.5 6h-248q-57 0 -145.5 -5t-100.5 -5v65 q147 0 179 34t32 184v925q0 92 -28.5 123t-121.5 31q-154 0 -233 -84q-61 -63 -115 -227h-57z" />
<glyph unicode="U" horiz-adv-x="1423" d="M-102 1374v66q74 0 172 -3t163 -5l338 6l-2 -64l-49 2q-92 0 -121.5 -38t-29.5 -132v-665q0 -307 92 -404q80 -84 254 -84q221 0 319.5 108.5t98.5 334.5v505v31v27v22q0 39 -2.5 81t-8.5 81q-8 88 -59 115q-37 18 -137 18v64q47 0 143 -4t145 -4l216 6v-66h-21 q-119 0 -150.5 -41t-31.5 -145v-58v-669q0 -276 -150 -391q-133 -102 -418 -103q-266 0 -399 92q-158 109 -158 365v772q0 115 -43 147.5t-161 32.5z" />
<glyph unicode="V" horiz-adv-x="1345" d="M-92 1376v64q53 0 182 -4t141 -4q76 0 123 2q190 8 209 8l-2 -64l-37 -2q-78 0 -104.5 -22.5t-26.5 -65.5q0 -41 43 -184q27 -84 33 -103q115 -362 229 -722q127 373 254 747q25 76 41 135q29 102 29 137q0 45 -34 61.5t-83 16.5l-55 -4l2 64l227 -4l264 4l3 -62h-11 q-31 0 -55.5 -2t-48.5 -10q-45 -16 -96 -125q-25 -55 -62 -160q-47 -119 -98 -268q-61 -184 -92 -274q-6 -18 -66 -205q-74 -233 -133 -340h-135q-29 70 -150 434q-135 408 -198 577q-111 295 -162 338q-25 23 -57.5 30t-73.5 7z" />
<glyph unicode="W" horiz-adv-x="2058" d="M-150 1382v60l463 -6q29 0 98.5 4t73.5 4v-64q-80 0 -108 -8q-66 -18 -66 -76q0 -27 3 -42t16 -50l274 -844l21 86l243 750q16 47 19.5 58.5t3.5 29.5q0 57 -51 80q-35 14 -105 14h-28l-2 62l362 -6l283 6l2 -64l-68 2q-51 0 -74.5 -18.5t-23.5 -69.5q0 -39 26 -135 q2 -10 41 -137l131 -400q45 -152 50 -163q12 -43 22 -103l270 871q12 41 13 84q0 47 -66 63q-33 8 -104 8l2 62q53 0 179 -4t136 -4l172 4v-62h-16q-90 0 -133 -41q-33 -31 -72 -125q-100 -260 -215 -604q-88 -268 -192 -614h-111q-57 209 -115 389q-33 100 -127 389 q-111 338 -127 387q-59 -170 -114.5 -331.5t-114.5 -346.5q-51 -156 -107 -344q-20 -72 -41 -141h-114q-25 88 -35 125q-2 10 -66 209q-74 238 -147 475q-86 266 -174 463q-31 70 -72 90q-14 6 -115 28z" />
<glyph unicode="X" horiz-adv-x="1423" d="M-102 2v64q90 0 143 30.5t106 108.5l377 528q-90 133 -186 264q-86 117 -195 258q-57 74 -86.5 91.5t-124.5 35.5v64q80 0 203 -5t144 -5q55 0 186 4t139 4v-68l-20 2q-61 0 -96 -12t-35 -35q0 -33 16 -65q4 -8 37 -58l225 -327q100 133 162 221q119 170 119 225 q0 25 -41 39t-111 14l-8 62l262 -4l238 4l2 -66q-92 0 -152 -41q-43 -29 -108 -114l-318 -422l428 -619q82 -119 226 -119v-59h-689v68h25q53 0 80 8q47 14 47 55q0 57 -191 332q-63 90 -127 180l-276 -409q-16 -25 -27.5 -51.5t-11.5 -51.5q0 -37 36 -49t87 -12h33l-2 -66 l-264 4q-41 0 -125 -4t-127 -4z" />
<glyph unicode="Y" horiz-adv-x="1306" d="M-94 1372v64l379 -6l288 4l2 -62q-68 0 -96 -8q-59 -16 -59 -66q0 -59 186 -362q61 -100 125 -201q94 172 154 289q116 225 116 280q0 50 -53 59t-88 9h-20l-2 62l219 -4l252 4l-2 -64q-16 0 -23 -4q-104 -14 -164 -109q-41 -74 -63 -112q-61 -104 -144 -252 q-59 -109 -137 -256v-399q0 -125 43 -154q31 -20 166 -21l-2 -65q-37 0 -126 4t-95 4h-225q-39 0 -119 -6t-121 -6v65q131 0 164 21q49 31 49 153v375l-367 609q-53 90 -94 118q-51 37 -143 37z" />
<glyph unicode="Z" horiz-adv-x="1267" d="M-57 41q96 150 194 301q119 182 195 301q137 213 192 301q86 141 129 211q79 127 138 207h-347q-176 0 -266 -59q-102 -68 -137 -234h-64l35 373l289 -4h293q119 0 192 2q295 8 324 8l23 -39q-143 -219 -287 -436q-242 -371 -287 -441q-123 -193 -272 -446h499 q180 0 269 100q63 72 121 269h51l-33 -461q-258 0 -438.5 3t-437.5 6t-359 3z" />
<glyph unicode="[" horiz-adv-x="792" d="M199 -580v2016h614v-88h-387v-1848h387v-80h-614z" />
<glyph unicode="\" horiz-adv-x="569" d="M-35 1509h135l504 -1548h-137z" />
<glyph unicode="]" horiz-adv-x="792" d="M-59 -494h387v1844h-383v86h606v-2011h-610v81z" />
<glyph unicode="^" horiz-adv-x="0" d="M-303 1501l240 426h118l236 -428h-96l-199 309l-193 -307h-106z" />
<glyph unicode="_" horiz-adv-x="1138" d="M0 -154h1139v-102h-1139v102z" />
<glyph unicode="`" horiz-adv-x="0" d="M-248 1288q0 94 96 94q49 0 82 -39q14 -16 47 -79l109 -213l-53 -35q-82 61 -164 123q-117 96 -117 149z" />
<glyph unicode="a" d="M0 215q0 178 125 250q96 55 289 55l147 -4v80q0 102 -22 156q-35 82 -125 82q-115 0 -143.5 -113t-112.5 -113q-41 0 -68 29t-27 72q0 121 142 168q83 28 231 28h10q201 0 283 -94q74 -86 74 -287l-6 -274q0 -109 20 -141q29 -47 131 -48v-63h-188q-76 0 -123 25 q-59 31 -70 100q-49 -70 -127 -108t-168 -38q-111 0 -191.5 63.5t-80.5 174.5zM233 233q0 -70 37 -116.5t107 -46.5q82 0 131 73q61 92 61 265l-2 43l-92 2q-121 0 -181.5 -50.5t-60.5 -169.5z" />
<glyph unicode="b" horiz-adv-x="1071" d="M-76 1372v58l385 8v-688q76 80 133 114q76 45 170 45q188 0 291 -139q90 -123 90 -321q0 -203 -94 -332q-106 -147 -303 -148q-117 0 -184.5 42t-130.5 147l-88 -160l-121 2q0 127 4 419t4 314l4 316v96q0 53 -3 87t-10.5 64.5t-9.5 36.5q-8 20 -29.5 26.5t-49 9.5 t-58.5 3zM303 422q0 -150 43 -244q60 -133 191 -133t174 158q22 79 22 249v15q0 141 -33 227q-49 129 -168 129q-131 0 -188 -143q-41 -102 -41 -258z" />
<glyph unicode="c" horiz-adv-x="833" d="M37 428q0 227 129 356t356 129q121 0 209 -47q111 -59 111 -170q0 -49 -31 -77.5t-80 -28.5q-55 0 -77.5 39t-22.5 98q0 55 -24.5 88t-80.5 33q-129 0 -184 -154q-37 -104 -37 -264q0 -147 47 -244q63 -129 195 -129q84 0 158 58q61 49 108 131l59 -27 q-66 -129 -157.5 -189.5t-235.5 -60.5q-207 0 -324.5 126t-117.5 333z" />
<glyph unicode="d" horiz-adv-x="1105" d="M10 446q0 193 99 320q109 141 294 141q195 0 304 -155v444q0 119 -22.5 143.5t-141.5 24.5v63l399 -2l-2 -796l-4 -258q0 -59 1 -113.5t10 -109t30.5 -70t69.5 -15.5h43v-63l-371 -8l-8 137q-61 -76 -130 -116t-161 -40q-209 0 -314 136q-96 123 -96 337zM276 453 q0 -158 29 -246q49 -148 170 -148q129 0 191 136q47 102 47 249q0 143 -45 240q-61 133 -189 133q-119 0 -168 -131q-35 -90 -35 -233z" />
<glyph unicode="e" d="M23 442q0 207 125.5 337t332.5 130q197 0 310.5 -109.5t113.5 -305.5q0 -27 -12 -37.5t-57 -10.5h-555q0 -197 73 -309q59 -90 154 -90q104 0 190 59q70 49 140 148l63 -33l-20 -24q-84 -119 -184.5 -172.5t-247.5 -53.5q-199 0 -312.5 133.5t-113.5 337.5zM283 524h327 l17 2q29 16 28 54v45q0 74 -45 141q-51 76 -123 76q-100 0 -157 -113q-47 -92 -47 -205z" />
<glyph unicode="f" horiz-adv-x="591" d="M-39 809v68l76 -3q70 0 89 15.5t19 83.5l-2 129q0 182 72 266q80 94 262 94q152 0 232 -57q65 -46 65 -123q0 -117 -112 -117q-57 0 -76 29t-19 80q2 45 2 67q0 29 -27.5 44.5t-60.5 15.5q-49 0 -75.5 -49t-26.5 -103v-317q0 -29 27.5 -43.5t93.5 -14.5l98 5v-72l-106 6 q-63 0 -87 -17.5t-24 -52.5v-571q0 -70 31 -92q23 -16 84 -17h49l-2 -63l-379 4l-184 -2v61q78 0 100 7q68 18 67 120l-2 129v377q0 61 -12 84q-18 33 -74 33z" />
<glyph unicode="g" horiz-adv-x="1030" d="M12 59q0 90 52.5 165t138.5 95q-41 57 -62.5 118.5t-21.5 127.5q0 160 107.5 250t269.5 90t284 -117q31 39 64 66q49 39 82 39q51 0 89 -27.5t38 -79.5q0 -75 -72 -75h-2q-31 0 -70 39q-20 20 -35 20q-16 0 -34 -16q-10 -10 -25 -33q41 -70 41 -156q0 -166 -103.5 -255 t-273.5 -89q-68 0 -103.5 11.5t-111.5 50.5q-49 -16 -76.5 -44t-27.5 -73q0 -53 67 -80q51 -20 115 -20h401q125 0 204 -77t79 -204q0 -188 -182 -291q-152 -86 -357 -86q-166 0 -292 43q-182 61 -183 193q0 90 62 141q14 12 141 78q-88 16 -141 61q-61 51 -62 135z M197 -319q0 -111 116 -166q92 -43 215 -43q117 0 226 51q133 63 133 168q0 104 -107 145q-74 29 -198 29h-84q-156 0 -236 -58q-65 -46 -65 -126zM336 569q0 -119 22 -176q38 -94 138 -94q88 0 122 111q23 72 23 184q0 96 -27 160q-39 90 -122 90q-88 0 -127 -101 q-29 -74 -29 -174z" />
<glyph unicode="h" horiz-adv-x="1105" d="M-53 8v62h39q68 0 89 21.5t21 105.5v1075q0 72 -32.5 87t-112.5 15l2 64l160 -2q53 0 115.5 4t105.5 8l-2 -784q59 119 145 178q93 65 215 65h4q121 0 185 -80q57 -72 57 -196v-469q0 -57 26.5 -73.5t79.5 -16.5h35l2 -66h-65h-58h-49h-43h-39h-32h-29h-27h-78.5t-78.5 2 h-23v62q92 0 114.5 22.5t22.5 114.5v401q0 78 -24 127q-33 63 -105 64q-129 0 -196 -209q-49 -152 -49 -322v-67q0 -92 34 -113q25 -14 127 -14l-2 -66l-258 4z" />
<glyph unicode="i" horiz-adv-x="552" d="M2 0v63l35 -2q66 0 89.5 24t23.5 91v547q0 61 -48 80q-27 10 -100 10v64l389 12v-672q0 -106 22.5 -131t123.5 -25v-63q-39 0 -133.5 4t-100.5 4zM100 1210q0 53 40.5 95.5t95.5 42.5q51 0 86.5 -43t35.5 -97q0 -47 -36.5 -81.5t-83.5 -34.5q-55 0 -96.5 32.5t-41.5 85.5 z" />
<glyph unicode="j" horiz-adv-x="512" d="M-147 -535q115 0 186 58q80 63 80 178v948q0 117 -19 139q-25 29 -133 29v62l389 8v-1153q0 -203 -163 -277q-109 -49 -340 -49v57zM76 1219q0 53 39 90t92 37q57 0 91 -40t34 -98q0 -51 -41 -83.5t-94 -32.5q-49 0 -85 38t-36 89z" />
<glyph unicode="k" horiz-adv-x="1030" d="M-39 2v61h25q92 0 112 39q12 23 13 127v1008q0 88 -27 110.5t-119 22.5v60l381 8v-865q0 -41 13.5 -56t54.5 -15q70 0 114 49q10 12 72 111q23 35 31 49q23 37 22 51q0 41 -31.5 48t-64.5 7h-39v62h447v-62h-13q-102 0 -164 -45q-31 -23 -159 -219q74 -86 150.5 -186.5 t150.5 -198.5q45 -57 73.5 -74.5t102.5 -36.5v-57h-508v61q33 0 61.5 8.5t28.5 30.5q0 16 -15.5 40t-33.5 48q-68 88 -133 177q-57 61 -94 61q-43 0 -54.5 -17.5t-11.5 -64.5v-172q0 -59 24.5 -84t131.5 -25v-61h-541z" />
<glyph unicode="l" horiz-adv-x="552" d="M-8 4v59h18q55 0 80 9q41 14 46 53t7 108.5t2 106.5v125v381v295v41q0 31 -2 63.5t-8 61t-14 41t-30.5 18.5t-57.5 8t-39 2v56l385 8v-1209q0 -117 17.5 -136t133.5 -34v-63q-63 0 -172.5 5t-132.5 5z" />
<glyph unicode="m" horiz-adv-x="1701" d="M-84 2v59q100 0 127 31t27 135v410q0 115 -19 139q-27 37 -135 37v64h47q180 0 332 14l4 -215q57 102 155.5 164.5t215.5 62.5q109 0 170 -61q55 -55 80 -166q59 109 157.5 167t220.5 58q125 0 185 -84q51 -74 51 -203v-397q0 -104 22.5 -125.5t131.5 -34.5v-61l-246 8 l-283 -4v61q12 0 29.5 1t46.5 6.5t40 16.5t18 39t9.5 67.5t2.5 89.5v96l2 168q0 106 -19 155q-33 88 -119 88q-84 0 -155 -96q-61 -84 -76 -178q-20 -135 -20 -283q0 -106 21.5 -131.5t123.5 -40.5l-2 -61l-266 8l-252 -6v61q82 0 104 13q37 20 37 98v420q0 82 -27 133 q-35 68 -110 68l-8 2q-150 -33 -205 -228q-35 -123 -35 -331q0 -66 13.5 -112t62.5 -56l74 -7l2 -61l-363 4z" />
<glyph unicode="n" horiz-adv-x="1105" d="M-45 2v55h37q66 0 87 19.5t21 97.5l6 293l5 129q0 80 -7 117q-14 84 -52 92t-75 8h-22v64l385 8v-203q76 115 145 162q84 57 209 57q121 0 185 -86q55 -76 55 -203v-460q2 -18 4 -37q14 -37 40 -45.5t75 -8.5h30l-2 -65l-262 8l-258 -6v61q96 10 115.5 27.5t19.5 116.5 v348q0 96 -18 151q-31 90 -109 91q-106 0 -180 -152q-61 -127 -61 -248v-243q0 -49 27.5 -71t121.5 -22v-59q-45 0 -150.5 4t-113.5 4z" />
<glyph unicode="o" horiz-adv-x="1071" d="M16 430q0 231 143.5 353t379.5 122q205 0 333.5 -129t128.5 -334q0 -223 -136 -345t-363 -122q-213 0 -346 119q-139 125 -140 336zM281 436q0 -211 71 -313q60 -86 166 -86q129 0 182 145q35 96 35 256q0 164 -35 256q-55 145 -190 146q-131 0 -188 -146 q-41 -104 -41 -258z" />
<glyph unicode="p" horiz-adv-x="1105" d="M-57 -528q106 0 129.5 21.5t23.5 131.5v1047q0 96 -24.5 118.5t-124.5 22.5v66l385 6v-135q45 76 132 116.5t181 40.5q178 0 287 -141q98 -127 98 -311q0 -199 -90 -334q-104 -158 -293 -158q-98 0 -167.5 36t-147.5 114v-490q0 -113 33 -135q23 -16 143 -16l2 -64 q-53 0 -159.5 4t-162.5 4q-43 0 -141 -4t-104 -4v64zM326 424q0 -137 47 -238q61 -131 184 -131q125 0 178 133q37 92 37 242q0 166 -29 250q-47 141 -180 141q-125 0 -188 -143q-49 -111 -49 -254z" />
<glyph unicode="q" horiz-adv-x="1105" d="M20 389q0 223 89 359q105 163 316 163h3q129 0 212 -49t134 -166l37 181h168v-1270q0 -90 25.5 -113.5t121.5 -23.5l-2 -62l-305 6l-258 -4v62h23q104 0 131.5 31.5t27.5 138.5v471q-74 -76 -143.5 -109t-167.5 -33q-186 0 -299 115t-113 303zM276 436q0 -156 33 -246 q51 -141 178 -141q135 0 203 133q53 106 53 254q0 154 -45 254q-61 137 -198 137q-127 0 -185 -141q-39 -98 -39 -250z" />
<glyph unicode="r" horiz-adv-x="792" d="M-23 2v59q100 0 124 26t24 124l4 117v346q0 88 -29.5 114.5t-122.5 26.5v64l148 -2l221 6q12 -90 12 -181q53 90 111 138q72 57 164 57q68 0 117 -43t49 -113q0 -47 -32 -82.5t-79 -35.5q-74 0 -110.5 77.5t-55.5 77.5q-84 0 -127 -192q-30 -131 -30 -256v-8v-121 q0 -98 22.5 -121t95.5 -23h60l-2 -59q-47 0 -158 4t-117 4z" />
<glyph unicode="s" horiz-adv-x="792" d="M29 297h61q23 -104 101.5 -181t181.5 -77q63 0 109 40t46 103q0 76 -240.5 169t-240.5 270q0 139 92 213.5t236 74.5q84 0 156.5 -18.5t144.5 -61.5l14 -188h-65q-25 84 -91.5 143.5t-150.5 59.5q-51 0 -98 -37t-47 -86q0 -90 245.5 -180t245.5 -269q0 -145 -104 -225 q-96 -74 -246 -74q-123 0 -201 27q-12 4 -123 51z" />
<glyph unicode="t" horiz-adv-x="634" d="M-43 811v68h78h26q45 0 61.5 14t16.5 65l-2 136l232 24l-4 -149q0 -57 25.5 -73.5t78.5 -16.5h43h74v-68q-18 0 -65.5 4t-51.5 4q-47 0 -73.5 -18.5t-26.5 -63.5l2 -547q0 -55 22.5 -89.5t73.5 -34.5q47 0 85 42t52 93l60 -23q-66 -203 -275 -203q-145 0 -204.5 55.5 t-59.5 198.5q0 88 6 264.5t6 266.5q0 35 -26.5 45t-67.5 10z" />
<glyph unicode="u" horiz-adv-x="1071" d="M-78 815v64l150 -2q53 0 88 2q135 8 147 8v-613q0 -72 23 -114q31 -57 96 -58q150 0 203 230q30 127 30 336v14q0 78 -28.5 104.5t-106.5 26.5v61h84q47 0 141.5 4.5t141.5 4.5v-688q0 -92 24.5 -112t120.5 -20v-65h-374l-11 182q-117 -121 -143 -141q-80 -59 -191 -59 q-129 0 -186 70.5t-57 201.5v438q0 86 -31 105.5t-121 19.5z" />
<glyph unicode="v" d="M-68 817v64l295 -7l215 5v-62q-49 0 -83.5 -9t-34.5 -46q0 -14 56 -168t140 -369q78 199 111 285q84 225 84 268q0 25 -20.5 32t-59.5 7h-31v64q35 0 119 -4.5t90 -4.5h68q47 6 69 9l-2 -64q-37 0 -63 -8q-39 -8 -103 -137q-45 -92 -108 -256q-37 -96 -72 -191l-88 -239 h-135l-305 737q-23 57 -51.5 75.5t-90.5 18.5z" />
<glyph unicode="w" horiz-adv-x="1542" d="M-115 823v56q41 0 127 -2.5t129 -2.5q45 0 151.5 4.5t113.5 4.5l-3 -64h-36q-33 0 -51.5 -12t-18.5 -45t109 -330q57 -158 67 -192q68 168 107 274q75 200 75 264q0 22 -22.5 30.5t-48.5 8.5l-31 -2l-2 66l289 -9l209 7v-58q-35 -4 -70 -6q-43 -10 -43 -47 q0 -53 108 -330q61 -160 74 -188q66 164 105 268q75 198 75 258q0 27 -34.5 35t-71.5 8v60l168 -5l184 5l-2 -66l-16 2q-72 0 -103 -33q-20 -20 -51 -100l-172 -428l-102 -277h-109q-51 135 -88 230q-63 164 -90 229q-16 43 -96 230l-260 -684h-111q-49 139 -106 282 q-72 180 -195 465q-25 59 -57.5 76.5t-100.5 17.5z" />
<glyph unicode="x" horiz-adv-x="989" d="M-70 4v59l29 5q113 16 270 190q66 74 131 150l-180 254q-47 68 -69 90q-59 61 -164 61v70l262 -9l270 5v-64q-51 0 -73.5 -5t-22.5 -38q0 -25 78 -133q27 -37 53 -74q43 43 92 103q70 84 74 108l-8 23q-12 6 -40 12t-38 10v60q82 -8 182 -9q43 0 86 2.5t84 8.5v-68l-12 2 q-80 0 -141 -51q-12 -10 -107 -115l-131 -147q98 -141 197 -283q51 -72 71 -92q66 -68 170 -68l-2 -63q-61 0 -124.5 2t-127.5 4l-295 -2v61l43 -2q29 0 47.5 11.5t18.5 40.5q0 23 -64 114q-72 100 -86 121q-90 -96 -140 -156.5t-50 -78.5q0 -16 14 -35q35 -14 78 -15 l-2 -59l-201 2z" />
<glyph unicode="y" d="M-63 817v66l292 -9l228 7l2 -62l-31 -2q-33 0 -55.5 -8t-22.5 -35q0 -66 76 -254q55 -133 111 -264l159 457q14 39 15 71q0 20 -20.5 27.5t-53.5 7.5q-23 0 -31 -2v64l160 -4l184 4l-2 -62h-24q-57 0 -83 -23.5t-48 -82.5l-131 -334q-59 -145 -138 -395q-25 -80 -76 -246 t-83 -219q-70 -113 -197 -113l-49 -2q-63 0 -117 39q-61 45 -61 104q0 113 110 113q61 0 84 -53q14 -35 15 -107q0 -29 38 -28q80 0 156 206q55 154 72 285q-6 23 -13.5 48.5t-13.5 37.5l-301 686q-23 53 -53.5 67.5t-97.5 14.5z" />
<glyph unicode="z" horiz-adv-x="870" d="M-23 37q53 78 170 254q154 231 170 256q53 82 164 260h-166q-100 0 -153 -44t-84 -145h-62l19 261l743 4l21 -29l-516 -774h155q147 0 205 35q68 41 111 176h59l-27 -291h-794z" />
<glyph unicode="{" horiz-adv-x="684" d="M86 479v123q113 0 147 137q16 66 17 230l-2 88q0 193 22 268q45 154 191 154h137v-133h-90q-55 0 -74.5 -51.5t-19.5 -116.5v-232l-2 -117q0 -88 -47 -172q-53 -94 -132 -114q113 -37 154 -170q27 -88 27 -242l-2 -178q0 -92 10 -135q20 -86 86 -86h90v-133h-137 q-96 0 -152.5 81.5t-56.5 182.5v350q0 96 -35 170q-45 96 -131 96z" />
<glyph unicode="|" horiz-adv-x="532" d="M193 -39v1548h149v-1548h-149z" />
<glyph unicode="}" horiz-adv-x="684" d="M86 -268h90q63 0 84 84q10 43 10 137l-2 176q0 156 27 242q41 133 156 168q-78 23 -129.5 112.5t-51.5 175.5v351q0 70 -14 106q-23 61 -80 62h-90v133h137q131 0 180 -131q33 -86 33 -261q0 -33 -1 -62.5t-1 -55.5q0 -162 17 -228q35 -139 147 -139v-123q-84 0 -129 -96 q-37 -78 -37 -170v-350q0 -102 -51 -178q-59 -86 -158 -86h-137v133z" />
<glyph unicode="~" horiz-adv-x="0" d="M-354 1565q0 115 35 186q47 98 149 98q74 0 194.5 -60t165.5 -60q29 0 50 22q29 33 34 92h70q0 -104 -37 -182q-47 -100 -137 -100q-80 0 -205 62.5t-158 62.5q-49 0 -69 -39q-16 -53 -27 -82h-65z" />
<glyph horiz-adv-x="980" d="M-39 268v107h371l151 274h-522v109h584l178 321l96 -55l-149 -266h323v-109h-383l-153 -274h536v-107h-594l-178 -317l-96 55l145 262h-309z" />
<glyph horiz-adv-x="1277" d="M-41 524q0 111 84 191t195 80q96 0 202 -70q55 -37 172 -141q113 104 170 141q107 70 205 70q111 0 193 -80t82 -193q0 -111 -77 -194.5t-186 -83.5q-113 0 -213 65q-35 23 -174 146q-139 -123 -174 -146q-100 -66 -215 -65q-109 0 -186.5 86t-77.5 194zM61 510 q0 -72 56.5 -122t130.5 -50q82 0 166 59q33 25 135 121q-92 80 -143 113q-92 61 -168 61q-72 0 -124.5 -54t-52.5 -128zM678 518q94 -90 135 -119q84 -59 168 -59q74 0 129 48t55 122q0 72 -51 127t-125 55q-76 0 -168 -59q-47 -31 -143 -115z" />
<glyph horiz-adv-x="1095" d="M-63 0l628 1352l555 -1352h-1183zM66 96h811l-383 920z" />
<glyph horiz-adv-x="886" d="M-27 741l383 723h117l381 -723l-381 -741h-117zM92 741l322 -635l323 635l-323 617z" />
<glyph horiz-adv-x="1271" />
<glyph unicode="&#xa1;" horiz-adv-x="634" d="M147 131l5 68l88 897h86q0 -127 22 -326q10 -98 23 -197q20 -147 28 -221q16 -131 17 -223q0 -59 -40 -103t-97 -44q-63 0 -97.5 42t-34.5 107zM147 1327q0 53 43 90t97 37q53 0 89 -42t36 -97q0 -53 -41 -90t-95 -37q-55 0 -92 41t-37 98z" />
<glyph unicode="&#xa2;" horiz-adv-x="833" d="M37 428q0 209 110 342q119 141 318 141v230h92v-230q106 0 188 -51q96 -61 97 -164q0 -47 -32 -76.5t-79 -29.5q-84 0 -98.5 120.5t-75.5 133.5v-789q80 0 152 60q59 49 104 131l59 -27q-53 -109 -124 -166q-80 -66 -191 -80v-237h-92v235q-199 0 -313.5 127t-114.5 330z M305 428q0 -117 31 -205q41 -114 129 -151v768q-94 -35 -133 -176q-27 -96 -27 -236z" />
<glyph unicode="&#xa3;" horiz-adv-x="1187" d="M-88 113q0 80 72 120q57 33 145 33q113 0 225 -41q18 25 32.5 77t14.5 87q0 72 -14 146q-43 160 -63 237h-295v90h268q-27 113 -34 152t-7 82q0 174 154 278q135 92 319 92q127 0 217 -39q125 -53 125 -163q0 -47 -32.5 -76t-80.5 -29q-70 0 -113.5 118t-158.5 118 q-80 0 -133 -51.5t-53 -129.5q0 -88 39 -221q18 -66 39 -131h358v-92h-332q14 -37 22.5 -95.5t8.5 -103.5q0 -98 -57.5 -196.5t-141.5 -163.5q61 -16 137 -21.5t168 -5.5q160 0 223.5 51.5t98.5 206.5h65l5 -65q0 -172 -74 -281q-84 -125 -250 -125q-104 0 -221 47.5 t-211 118.5q-45 -51 -139.5 -106.5t-153.5 -55.5q-70 0 -117 33q-55 39 -55 105z" />
<glyph unicode="&#xa7;" horiz-adv-x="1144" d="M-12 750q0 268 180 463.5t446 195.5q156 0 265 -74q127 -86 127 -235q0 -63 -39 -119.5t-101 -56.5q-49 0 -88 27.5t-39 74.5q0 66 63.5 92.5t63.5 77.5q0 78 -102 113q-72 25 -170 24q-100 0 -177 -63.5t-77 -163.5q0 -121 192 -297q178 -162 359 -324 q195 -209 194 -405q0 -272 -182 -458.5t-454 -186.5q-160 0 -283 73q-145 88 -146 240q0 70 41 126t111 56q61 0 92 -32.5t31 -92.5q0 -43 -94 -86q-45 -20 -45 -51q0 -78 104 -125q82 -37 172 -37q113 0 186 58q82 63 82 174q0 119 -184 291q-172 160 -342 319 q-186 207 -186 402zM133 889q0 -176 182 -361q168 -154 338 -307q185 -184 185 -350q0 -102 -38 -179t-120 -159q111 53 180.5 169t69.5 241q0 98 -44 180t-124 158l-361 337q-84 78 -133 158q-63 102 -63 195q0 92 45 174q63 94 98 151q-100 -90 -153 -180 q-61 -106 -62 -227z" />
<glyph unicode="&#xa8;" horiz-adv-x="0" d="M-342 1225q0 51 38 82.5t89 31.5q47 0 76.5 -33.5t29.5 -82.5q0 -43 -30.5 -78t-75.5 -35h-31q-37 0 -66.5 38t-29.5 77zM98 1235q0 43 35 75.5t78 32.5q49 0 85 -37.5t36 -84.5q0 -43 -37 -78t-82 -35q-53 0 -84 37t-31 90z" />
<glyph unicode="&#xa9;" horiz-adv-x="1413" d="M2 649q0 281 198.5 479.5t479.5 198.5t479.5 -198.5t198.5 -479.5q0 -283 -197.5 -480.5t-480.5 -197.5q-281 0 -479.5 199t-198.5 479zM80 649q0 -248 176 -424t424 -176t424 176t176 424t-176 424t-424 176t-424 -176t-176 -424zM311 633q0 162 104.5 276.5 t262.5 114.5q39 0 108.5 -19.5t100.5 -19.5q39 0 47 33h37l8 -252h-39q-16 90 -80.5 148.5t-154.5 58.5q-123 0 -199 -111q-68 -98 -68 -227q0 -137 66.5 -223t200.5 -86q84 0 131 21.5t125 84.5l22 -35q-68 -72 -136.5 -107.5t-156.5 -35.5q-170 0 -274.5 104.5 t-104.5 274.5z" />
<glyph unicode="&#xab;" horiz-adv-x="870" d="M-43 463q102 90 207 201q71 78 194 219l86 -47q-100 -197 -221 -381q57 -74 113 -162q47 -74 100 -170l-88 -49q-170 178 -391 389zM313 461q193 182 209 201q111 112 189 221l92 -56l-221 -374q57 -78 108 -159t96 -169l-90 -53q-55 63 -139 149q-92 96 -244 240z" />
<glyph unicode="&#xac;" horiz-adv-x="1277" d="M-61 459v106h1308v-565h-108v459h-1200z" />
<glyph unicode="&#xad;" horiz-adv-x="673" d="M23 379v162h598v-162h-598z" />
<glyph unicode="&#xae;" horiz-adv-x="1413" d="M0 639q0 281 198.5 479.5t479.5 198.5t479.5 -198.5t198.5 -479.5t-198.5 -479.5t-479.5 -198.5t-479.5 198.5t-198.5 479.5zM78 637q0 -250 176 -424t424 -174t424 176t176 424t-176 424t-426 176t-424 -176t-174 -426zM354 297v35q37 0 60 8q37 14 37 43v567 q0 35 -11.5 46.5t-38.5 11.5h-36v36h335q109 0 179 -36q90 -47 90 -148q0 -84 -58.5 -140t-142.5 -56l236 -304q25 -29 71 -28v-35h-186l-262 348h-52v-256q0 -33 27 -45t66 -12v-35h-314zM573 963l2 -273q106 0 168 25q92 37 93 129q0 84 -36 115.5t-122 39.5l-64 5 q-16 0 -28.5 -12.5t-12.5 -28.5z" />
<glyph unicode="&#xb0;" horiz-adv-x="512" d="M-25 1051q0 123 86 209t209 86q121 0 208 -87.5t87 -207.5q0 -121 -86 -207t-209 -86q-121 0 -208 85t-87 208zM53 1051q0 -88 63.5 -151.5t153.5 -63.5t153.5 61t63.5 154q0 88 -65.5 151.5t-153.5 63.5q-90 0 -152.5 -62.5t-62.5 -152.5z" />
<glyph unicode="&#xb1;" horiz-adv-x="980" d="M-47 0v109h1038v-109h-1038zM-47 694v109h465v465h108v-465h465v-109h-465v-467h-108v467h-465z" />
<glyph unicode="&#xb4;" horiz-adv-x="0" d="M-119 1057l127 246q23 41 48.5 62t66.5 21t69.5 -24.5t28.5 -63.5q0 -63 -164 -190l-118 -90z" />
<glyph unicode="&#xb5;" horiz-adv-x="1030" d="M-6 -299q0 53 16 119q39 158 39 198v965h168v-653q0 -98 46 -162t140 -64q61 0 128 46.5t94 103.5v729h168v-756q0 -59 22 -104q31 -59 84 -60q55 0 76 46q16 63 29 92l38 -2q-23 -102 -75 -162q-63 -70 -164 -70q-86 0 -127 58q-29 39 -47 137q-59 -84 -133 -135 q-88 -59 -179 -60q-49 0 -86 17q-8 4 -112 79v-45q0 -55 31.5 -160.5t31.5 -154.5q0 -51 -22.5 -96t-69.5 -45t-71.5 44t-24.5 95z" />
<glyph unicode="&#xb6;" horiz-adv-x="1366" d="M180 1038q0 197 126 302.5t327 105.5h471v-111h-70v-1677h-119v1677h-294v-1677h-119v995q-152 25 -237 128.5t-85 256.5z" />
<glyph unicode="&#xb7;" horiz-adv-x="307" d="M31 596q0 61 41 100t102 39q53 0 92 -41t39 -96q0 -57 -37 -98t-96 -41q-61 0 -101 38t-40 99z" />
<glyph unicode="&#xb8;" horiz-adv-x="0" d="M-252 -436l64 20q39 -66 59 -84q35 -31 100 -30q49 0 80 54t31 109q0 86 -19 136q-29 78 -98 77q-51 0 -63.5 -77.5t-71.5 -77.5q-31 0 -49.5 24.5t-18.5 55.5q0 70 78 108q61 31 137 31q117 0 190 -70.5t73 -185.5t-72 -184.5t-186 -69.5q-84 0 -140 45q-45 37 -94 119z " />
<glyph unicode="&#xbb;" horiz-adv-x="870" d="M12 125l224 377q-72 106 -107 160q-47 72 -104 165l92 52q195 -211 385 -381q-104 -100 -205 -207q-86 -90 -197 -215zM369 123l221 379q-109 150 -211 325l88 52q207 -217 389 -385q-121 -106 -211 -199q-100 -104 -188 -223z" />
<glyph unicode="&#xbf;" horiz-adv-x="870" d="M-27 436q0 199 95 285q74 68 282 121q80 20 109.5 62t29.5 128l-4 86h86l2 -137q0 -143 -86 -188q-160 -84 -163 -88q-88 -92 -88 -347q0 -117 24 -188q39 -113 135 -113q70 0 80 104.5t103 104.5q47 0 75.5 -30.5t28.5 -79.5q0 -86 -88 -133q-74 -39 -170 -39 q-217 0 -334 116.5t-117 335.5zM391 1325q0 53 38 89t93 36q53 0 94 -39t41 -92t-42 -91t-95 -38t-91 40t-38 95z" />
<glyph unicode="&#xc0;" horiz-adv-x="1345" d="M-94 2v53q88 0 134 35t87 121q74 160 166 446q76 236 90 277q68 195 90 258q66 172 96 258h117q18 -74 53 -167t68 -179q47 -133 111 -328q53 -166 106 -330q25 -78 49 -153q29 -78 69 -142.5t79 -79t122 -14.5l-2 -57l-360 8l-313 -6v55q80 0 108 11q57 20 58 86 q0 63 -37 168q-18 49 -35 95t-37 60.5t-66 14.5h-272q-31 0 -52.5 -21.5t-31.5 -54.5l-65 -213q-8 -29 -10.5 -38t-2.5 -24q0 -55 66 -71q31 -8 108 -9l-2 -61l-221 6zM365 608q0 -18 10 -26q2 -2 26 -15h263q39 16 38 39q0 66 -96 324q-35 92 -69 184q-31 -59 -99 -256 q-74 -211 -73 -250zM383 1835q0 41 31.5 68.5t77.5 27.5q49 0 83 -47q20 -29 43 -94l87 -262l-58 -31q-76 82 -151 164q-113 129 -113 174z" />
<glyph unicode="&#xc1;" horiz-adv-x="1345" d="M-94 2v53q88 0 134 35t87 121q74 160 166 446q76 236 90 277q68 195 90 258q66 172 96 258h117q18 -74 53 -167t68 -179q47 -133 111 -328q53 -166 106 -330q25 -78 49 -153q29 -78 69 -142.5t79 -79t122 -14.5l-2 -57l-360 8l-313 -6v55q80 0 108 11q57 20 58 86 q0 63 -37 168q-18 49 -35 95t-37 60.5t-66 14.5h-272q-31 0 -52.5 -21.5t-31.5 -54.5l-65 -213q-8 -29 -10.5 -38t-2.5 -24q0 -55 66 -71q31 -8 108 -9l-2 -61l-221 6zM365 608q0 -18 10 -26q2 -2 26 -15h263q39 16 38 39q0 66 -96 324q-35 92 -69 184q-31 -59 -99 -256 q-74 -211 -73 -250zM516 1530l96 295q18 51 41 76q31 32 80 32q45 0 76 -26.5t31 -71.5q0 -49 -156 -219q-55 -59 -109 -117z" />
<glyph unicode="&#xc2;" horiz-adv-x="1345" d="M-94 2v53q88 0 134 35t87 121q74 160 166 446q76 236 90 277q68 195 90 258q66 172 96 258h117q18 -74 53 -167t68 -179q47 -133 111 -328q53 -166 106 -330q25 -78 49 -153q29 -78 69 -142.5t79 -79t122 -14.5l-2 -57l-360 8l-313 -6v55q80 0 108 11q57 20 58 86 q0 63 -37 168q-18 49 -35 95t-37 60.5t-66 14.5h-272q-31 0 -52.5 -21.5t-31.5 -54.5l-65 -213q-8 -29 -10.5 -38t-2.5 -24q0 -55 66 -71q31 -8 108 -9l-2 -61l-221 6zM303 1501l238 426h118l236 -428h-94l-199 309l-192 -307h-107zM365 608q0 -18 10 -26q2 -2 26 -15h263 q39 16 38 39q0 66 -96 324q-35 92 -69 184q-31 -59 -99 -256q-74 -211 -73 -250z" />
<glyph unicode="&#xc3;" horiz-adv-x="1345" d="M-94 2v53q88 0 134 35t87 121q74 160 166 446q76 236 90 277q68 195 90 258q66 172 96 258h117q18 -74 53 -167t68 -179q47 -133 111 -328q53 -166 106 -330q25 -78 49 -153q29 -78 69 -142.5t79 -79t122 -14.5l-2 -57l-360 8l-313 -6v55q80 0 108 11q57 20 58 86 q0 63 -37 168q-18 49 -35 95t-37 60.5t-66 14.5h-272q-31 0 -52.5 -21.5t-31.5 -54.5l-65 -213q-8 -29 -10.5 -38t-2.5 -24q0 -55 66 -71q31 -8 108 -9l-2 -61l-221 6zM250 1565q0 115 37 188q49 96 149 96q61 0 144 -37q184 -84 215 -83q41 0 61 38q14 25 23 76h71 q0 -104 -37 -180q-49 -102 -141 -102q-68 0 -156 38q-193 86 -204 87q-47 0 -70 -39q-10 -18 -25 -82h-67zM365 608q0 -18 10 -26q2 -2 26 -15h263q39 16 38 39q0 66 -96 324q-35 92 -69 184q-31 -59 -99 -256q-74 -211 -73 -250z" />
<glyph unicode="&#xc4;" horiz-adv-x="1345" d="M-94 2v53q88 0 134 35t87 121q74 160 166 446q76 236 90 277q68 195 90 258q66 172 96 258h117q18 -74 53 -167t68 -179q47 -133 111 -328q53 -166 106 -330q25 -78 49 -153q29 -78 68 -142.5t79 -79t123 -14.5l-2 -57l-360 8l-313 -6v57h26q63 0 94 15q45 20 46 76 q0 47 -15 100q-6 25 -59 172q-14 41 -34.5 55.5t-68.5 14.5h-272q-35 0 -57 -27q-14 -18 -29 -57q-33 -86 -47 -132q-27 -80 -27 -135t66 -71q31 -8 108 -9l-2 -61l-221 6zM281 1708q0 47 34.5 80t83.5 33q45 0 79 -36t34 -83t-35 -80t-82 -33q-45 0 -79.5 37t-34.5 82z M362 608q0 -16 14.5 -28.5t33.5 -12.5h239q53 0 53 37q0 53 -69 248q-49 131 -96 264q-20 -43 -97.5 -262t-77.5 -246zM743 1710q0 49 35 80t86 31q47 0 78 -35t31 -82t-35 -80t-82 -33q-45 0 -79 36t-34 83z" />
<glyph unicode="&#xc5;" horiz-adv-x="1345" d="M-94 2v53q90 0 135 35t84 121q66 143 137 356q59 182 124 371.5t87 253.5q66 172 96 258h117q18 -74 53 -167t68 -179q47 -133 111 -328q53 -166 106 -330q25 -78 49 -153q29 -78 69 -142.5t79 -79t122 -14.5l-2 -57l-360 8l-313 -6v55q80 0 108 11q57 20 58 86 q0 63 -37 168q-18 49 -39 109.5t-80 60.5h-291q-31 0 -52.5 -21.5t-31.5 -54.5l-65 -213q-8 -29 -10.5 -38t-2.5 -24q0 -55 66 -71q31 -8 108 -9l-2 -61l-221 6zM365 606q0 -20 16 -29.5t39 -9.5h229q53 0 53 37q0 53 -69 248q-49 131 -96 264q-31 -63 -99 -258 q-74 -213 -73 -252zM438 1706q0 78 55.5 131t135.5 53q76 0 131 -55t55 -133q0 -80 -56.5 -134.5t-133.5 -54.5q-80 0 -133.5 55.5t-53.5 137.5zM528 1694q0 -27 29.5 -58.5t58.5 -31.5q41 0 73 25.5t32 66.5q0 45 -26.5 73.5t-71.5 28.5q-33 0 -64 -25.5t-31 -58.5v-20z " />
<glyph unicode="&#xc6;" horiz-adv-x="1976" d="M-152 2l11 59q88 0 130 24t93 99q59 84 135 222q61 115 125 229l205 377q43 78 90 155q102 172 139 267h1036v-396h-61l-10 52q-57 162 -145.5 214t-268.5 52q-133 0 -167 -32t-34 -165v-325q0 -45 19.5 -60.5t64.5 -15.5q162 0 218.5 64.5t56.5 228.5h67v-643h-69 q0 160 -55.5 215t-215.5 55q-49 0 -65.5 -23.5t-16.5 -76.5v-390q0 -63 50 -88q33 -16 104 -16q264 0 365 45q152 68 217 289l65 -2q-12 -104 -23.5 -219t-11.5 -199q-123 0 -405.5 4t-300.5 4q-90 0 -302 -4t-226 -4v61q111 0 145 17q59 27 59 123v307q0 74 -67 74h-293 q-59 0 -103 -54q-10 -12 -62 -104t-77 -143q-47 -96 -47 -144q0 -53 92 -67q20 -4 76 -9v-59l-242 6zM506 709q0 -23 33 -37l20 -2h238q76 0 75 73v406q0 70 -6 109.5t-20 48.5h-8q-27 0 -146 -224q-37 -68 -68.5 -127t-66.5 -129q-51 -102 -51 -118z" />
<glyph unicode="&#xc7;" horiz-adv-x="1345" d="M16 678q0 371 204 583t575 212q129 0 242.5 -24t222.5 -77v-340h-58q-53 178 -137 262q-100 98 -274 99q-244 0 -369 -242q-100 -195 -100 -461q0 -264 96 -432q121 -209 366 -209q205 0 306 131q74 96 124 322h64l12 -357q-117 -94 -250 -136t-292 -42 q-328 0 -530 191.5t-202 519.5zM365 -436l63 20q39 -115 156 -114q53 0 86 57q27 47 26 106q0 88 -16 136q-27 78 -100 77q-51 0 -63.5 -77.5t-63.5 -77.5q-74 0 -74 80q0 70 78 108q61 31 137 31q115 0 187.5 -70.5t72.5 -187.5q0 -113 -71.5 -182.5t-182.5 -69.5 q-80 0 -142.5 44t-92.5 120z" />
<glyph unicode="&#xc8;" horiz-adv-x="1267" d="M-45 -4v63q135 0 170 39t35 178v943q0 106 -47 137q-35 23 -150 22v60h1145v-394l-61 3q-31 170 -127.5 241.5t-274.5 71.5h-65q-94 0 -125 -31t-31 -129v-352q0 -53 15.5 -70.5t68.5 -17.5h41q127 0 178 64.5t51 195.5l-2 31h70v-641h-70q0 150 -53 209t-201 59 q-66 0 -82 -21.5t-16 -91.5l-2 -321q0 -78 25.5 -118t101.5 -40h178q168 0 282.5 86t151.5 246h60l-31 -412l-252 -2l-731 2q-53 0 -143.5 -5t-108.5 -5zM348 1835q0 41 32 68.5t77 27.5q51 0 84 -47q18 -27 41 -94l88 -262l-56 -27q-141 152 -151 164q-115 131 -115 170z " />
<glyph unicode="&#xc9;" horiz-adv-x="1267" d="M-45 -4v63q135 0 170 39t35 178v943q0 106 -47 137q-35 23 -150 22v60h1145v-394l-61 3q-31 170 -127.5 241.5t-274.5 71.5h-65q-94 0 -125 -31t-31 -129v-352q0 -53 15.5 -70.5t68.5 -17.5h41q127 0 178 64.5t51 195.5l-2 31h70v-641h-70q0 150 -53 209t-201 59 q-66 0 -82 -21.5t-16 -91.5l-2 -321q0 -78 25.5 -118t101.5 -40h178q168 0 282.5 86t151.5 246h60l-31 -412l-252 -2l-731 2q-53 0 -143.5 -5t-108.5 -5zM481 1530l101 295q16 51 39 76q30 32 77 32q45 0 76 -26.5t31 -69.5q0 -49 -156 -221q-55 -59 -108 -117z" />
<glyph unicode="&#xca;" horiz-adv-x="1267" d="M-45 -4v63q135 0 170 39t35 178v943q0 106 -47 137q-35 23 -150 22v60h1145v-394l-61 3q-31 170 -127.5 241.5t-274.5 71.5h-65q-94 0 -125 -31t-31 -129v-352q0 -53 15.5 -70.5t68.5 -17.5h41q127 0 178 64.5t51 195.5l-2 31h70v-641h-70q0 150 -53 209t-201 59 q-66 0 -82 -21.5t-16 -91.5l-2 -321q0 -78 25.5 -118t101.5 -40h178q168 0 282.5 86t151.5 246h60l-31 -412l-252 -2l-731 2q-53 0 -143.5 -5t-108.5 -5zM268 1501l240 426h119l235 -428h-96l-199 309l-192 -307h-107z" />
<glyph unicode="&#xcb;" horiz-adv-x="1267" d="M-45 -4v63q135 0 170 39t35 178v943q0 106 -47 137q-35 23 -150 22v60h1145v-394l-61 3q-31 170 -127.5 241.5t-274.5 71.5h-65q-94 0 -125 -31t-31 -129v-352q0 -53 15.5 -70.5t68.5 -17.5h41q127 0 178 64.5t51 195.5l-2 31h70v-641h-70q0 150 -53 209t-201 59 q-66 0 -82 -21.5t-16 -91.5l-2 -321q0 -78 25.5 -118t101.5 -40h178q168 0 282.5 86t151.5 246h60l-31 -412l-252 -2l-731 2q-53 0 -143.5 -5t-108.5 -5zM219 1708q0 45 38 74.5t87 29.5t77 -35.5t28 -84.5t-36 -77t-87 -28q-47 0 -77 36t-30 85zM678 1706q0 47 40 79t89 32 q47 0 75.5 -38t28.5 -87q0 -43 -35.5 -75t-76.5 -32q-47 0 -84 37t-37 84z" />
<glyph unicode="&#xcc;" horiz-adv-x="710" d="M-10 -2v61q131 0 166 27q43 33 43 162v1007q0 82 -66 109q-41 16 -139 16l2 58q63 0 210.5 -4t155.5 -4q72 0 117 2q180 8 197 8l-2 -56l-51 -2q-82 0 -118 -28.5t-36 -110.5v-1048q0 -94 59 -119q31 -12 144 -13l2 -67q-43 0 -131 6t-133 6h-95q-74 0 -190.5 -5 t-134.5 -5zM90 1839q0 37 36 64.5t75 27.5q51 0 82 -47q18 -27 41 -94l90 -262l-58 -29q-78 82 -153 164q-113 129 -113 176z" />
<glyph unicode="&#xcd;" horiz-adv-x="710" d="M-12 -2v61q131 0 166 27q43 33 43 162v1007q0 82 -66 109q-41 16 -139 16l2 58q63 0 210.5 -4t155.5 -4q72 0 117 2q180 8 197 8l-2 -56l-51 -2q-82 0 -118 -28.5t-36 -110.5v-1048q0 -94 59 -119q31 -12 144 -13l2 -67q-43 0 -131 6t-133 6h-95q-74 0 -190.5 -5 t-134.5 -5zM223 1530l99 295q16 49 43.5 78.5t76.5 29.5q41 0 73 -25.5t32 -66.5q0 -59 -154 -225q-55 -59 -110 -117z" />
<glyph unicode="&#xce;" horiz-adv-x="710" d="M-10 -2v61q131 0 166 27q43 33 43 162v1007q0 82 -66 109q-41 16 -139 16l2 58q63 0 210.5 -4t155.5 -4q72 0 117 2q180 8 197 8l-2 -56l-51 -2q-82 0 -118 -28.5t-36 -110.5v-1048q0 -94 59 -119q31 -12 144 -13l2 -67q-43 0 -131 6t-133 6h-95q-74 0 -190.5 -5 t-134.5 -5zM10 1501l240 426h119l235 -428h-96l-199 309l-192 -307h-107z" />
<glyph unicode="&#xcf;" horiz-adv-x="710" d="M-18 1708q0 45 37.5 74.5t86.5 29.5q47 0 77 -35.5t30 -86.5q0 -47 -36 -75t-87 -28t-79.5 35t-28.5 86zM10 -2v61q131 0 166 27q43 33 43 162v1007q0 82 -65 109q-41 16 -140 16l2 58q63 0 211 -4t156 -4q72 0 117 2q180 8 196 8l-2 -56l-51 -2q-82 0 -118 -28.5 t-36 -110.5v-1048q0 -94 60 -119q31 -12 143 -13l2 -67q-43 0 -131 6t-133 6h-94q-74 0 -190.5 -5t-135.5 -5zM442 1700q0 53 36 85t91 32q47 0 76 -37t29 -86q0 -43 -35 -76t-80 -33q-43 0 -80 35t-37 80z" />
<glyph unicode="&#xd1;" horiz-adv-x="1503" d="M-66 2v59q131 0 167 38t36 171q4 35 4 77v67l-2 207q0 113 4 370.5t4 274.5q0 70 -49 94q-33 16 -108 16h-33v62h430q399 -512 793 -1032v708q0 174 -29 213q-35 47 -195 47l2 64q49 0 165 -4t122 -4q39 0 133.5 4t100.5 4v-66q-125 0 -154 -16q-47 -27 -47 -146v-1222 h-98l-940 1218v-938q0 -127 38.5 -166t165.5 -39l2 -67q-55 0 -185 4t-142 4zM326 1565q0 115 34 186q48 98 152 98q63 0 143 -37q182 -84 217 -83q39 0 62 38q16 29 22 76h72q0 -106 -37 -182q-49 -100 -143 -100q-80 0 -203 61t-158 61q-43 0 -67 -38q-16 -27 -27 -80h-67 z" />
<glyph unicode="&#xd2;" horiz-adv-x="1503" d="M8 696q0 346 172 553q184 221 525 221q344 0 528 -198.5t184 -544.5q0 -350 -174 -551q-184 -213 -530 -213q-334 0 -519.5 198.5t-185.5 534.5zM311 717q0 -354 125 -533q103 -147 281 -147q233 0 330 235q68 166 67 439q0 291 -61 446q-96 242 -340 242 q-231 0 -332 -240q-70 -168 -70 -442zM471 1831q0 43 30.5 71.5t76.5 28.5q49 0 84 -47q25 -33 45 -94l86 -262l-58 -29q-76 80 -151 162q-113 127 -113 170z" />
<glyph unicode="&#xd3;" horiz-adv-x="1503" d="M8 696q0 346 172 553q184 221 525 221q344 0 528 -198.5t184 -544.5q0 -350 -174 -551q-184 -213 -530 -213q-334 0 -519.5 198.5t-185.5 534.5zM311 717q0 -354 125 -533q103 -147 281 -147q233 0 330 235q68 166 67 439q0 291 -61 446q-96 242 -340 242 q-231 0 -332 -240q-70 -168 -70 -442zM604 1530l98 295q16 49 44 78.5t75 29.5q45 0 76 -26.5t31 -71.5q0 -53 -154 -221q-55 -57 -108 -115z" />
<glyph unicode="&#xd4;" horiz-adv-x="1503" d="M8 696q0 346 172 553q184 221 525 221q344 0 528 -198.5t184 -544.5q0 -350 -174 -551q-184 -213 -530 -213q-334 0 -519.5 198.5t-185.5 534.5zM311 717q0 -354 125 -533q103 -147 281 -147q233 0 330 235q68 166 67 439q0 291 -61 446q-96 242 -340 242 q-231 0 -332 -240q-70 -168 -70 -442zM391 1501l238 426h119l235 -428h-96l-197 309l-194 -307h-105z" />
<glyph unicode="&#xd5;" horiz-adv-x="1503" d="M8 696q0 346 172 553q184 221 525 221q344 0 528 -198.5t184 -544.5q0 -350 -174 -551q-184 -213 -530 -213q-334 0 -519.5 198.5t-185.5 534.5zM311 717q0 -354 125 -533q103 -147 281 -147q233 0 330 235q68 166 67 439q0 291 -61 446q-96 242 -340 242 q-231 0 -332 -240q-70 -168 -70 -442zM336 1571q0 109 39 182q51 96 149 96q72 0 193 -60t164 -60q41 0 61.5 34.5t24.5 79.5h71q0 -102 -37 -180q-49 -102 -141 -102q-72 0 -155 36q-195 86 -205 86q-47 0 -70 -38q-10 -20 -24 -80h-68z" />
<glyph unicode="&#xd6;" horiz-adv-x="1503" d="M10 698q0 348 174 553q187 219 529 219t526 -202q178 -197 178 -541q0 -350 -174 -551q-184 -213 -530 -213q-332 0 -517.5 199.5t-185.5 535.5zM311 717q0 -354 125 -533q103 -147 281 -147q233 0 330 235q68 166 67 439q0 291 -61 446q-96 242 -340 242 q-231 0 -332 -240q-70 -168 -70 -442zM373 1706q0 47 37 80t84 33q49 0 78.5 -36t29.5 -89q0 -41 -40 -71t-83 -30q-45 0 -75.5 33t-30.5 80zM831 1704q0 53 35 84t88 31q41 0 74 -38t33 -81t-35 -76t-78 -33q-45 0 -81 34t-36 79z" />
<glyph unicode="&#xd8;" horiz-adv-x="1503" d="M2 709q0 338 176 542q186 217 518 217q131 0 216 -20.5t198 -83.5l33 -16l117 135l71 -58l-123 -137q84 -84 142.5 -215t58.5 -248v-184q0 -299 -197.5 -490.5t-498.5 -191.5q-147 0 -260 38t-230 126l-143 -162l-64 62l144 176q-74 78 -116 229.5t-42 280.5zM303 631 q0 -115 35 -230l692 816q-68 98 -139.5 141t-185.5 43q-219 0 -324 -221q-78 -166 -78 -416v-133zM369 293q41 -117 131 -186.5t211 -69.5q170 0 270 127q80 102 117 291q27 139 26 311q0 94 -24.5 202.5t-32.5 151.5z" />
<glyph unicode="&#xd9;" horiz-adv-x="1423" d="M-102 1374v66q74 0 172 -3t163 -5l338 6l-2 -64l-49 2q-92 0 -121.5 -38t-29.5 -132v-665q0 -307 92 -404q80 -84 254 -84q221 0 319.5 108.5t98.5 334.5v505v31v27v22q0 39 -2.5 81t-8.5 81q-8 88 -59 115q-37 18 -137 18v64q47 0 143 -4t145 -4l216 6v-66h-21 q-119 0 -150.5 -41t-31.5 -145v-58v-669q0 -276 -150 -391q-133 -102 -418 -103q-266 0 -399 92q-158 109 -158 365v772q0 115 -43 147.5t-161 32.5zM420 1839q0 37 36 64.5t74 27.5q49 0 82 -47q20 -31 43 -94l88 -262l-57 -29q-78 82 -154 164q-113 129 -112 176z" />
<glyph unicode="&#xda;" horiz-adv-x="1423" d="M-104 1374v66q74 0 172 -3t163 -5l338 6l-2 -64l-49 2q-92 0 -121.5 -38t-29.5 -132v-665q0 -307 92 -404q80 -84 254 -84q221 0 319 108.5t98 334.5v505v31v27v22q0 39 -2 81t-8 81q-8 88 -59 115q-37 18 -137 18v64q47 0 143 -4t145 -4l215 6v-66h-20 q-119 0 -150.5 -41t-31.5 -145v-58v-669q0 -276 -150 -391q-133 -102 -418 -103q-266 0 -399 92q-158 109 -158 365v772q0 115 -43 147.5t-161 32.5zM555 1530l98 295q16 49 44 78.5t75 29.5q41 0 73 -25.5t32 -68.5q0 -49 -109 -174q-125 -133 -154 -166z" />
<glyph unicode="&#xdb;" horiz-adv-x="1423" d="M-102 1374v66q74 0 172 -3t163 -5l338 6l-2 -64l-49 2q-92 0 -121.5 -38t-29.5 -132v-665q0 -307 92 -404q80 -84 254 -84q221 0 319.5 108.5t98.5 334.5v505v31v27v22q0 39 -2.5 81t-8.5 81q-8 88 -59 115q-37 18 -137 18v64q47 0 143 -4t145 -4l216 6v-66h-21 q-119 0 -150.5 -41t-31.5 -145v-58v-669q0 -276 -150 -391q-133 -102 -418 -103q-266 0 -399 92q-158 109 -158 365v772q0 115 -43 147.5t-161 32.5zM340 1501l240 426h118l236 -428h-96l-199 309l-193 -307h-106z" />
<glyph unicode="&#xdc;" horiz-adv-x="1423" d="M-102 1374v66q74 0 172 -3t163 -5l338 6l-2 -64l-49 2q-92 0 -121.5 -38t-29.5 -132v-665q0 -307 92 -404q80 -84 254 -84q221 0 319.5 108.5t98.5 334.5v505v31v27v22q0 39 -2.5 81t-8.5 81q-8 88 -59 115q-37 18 -137 18v64q47 0 143 -4t145 -4l216 6v-66h-21 q-119 0 -150.5 -41t-31.5 -145v-58v-669q0 -276 -150 -391q-133 -102 -418 -103q-266 0 -399 92q-158 109 -158 365v772q0 115 -43 147.5t-161 32.5zM373 1706q0 47 32.5 80t81.5 33t83 -32t34 -79t-37 -82t-84 -35q-45 0 -77.5 35t-32.5 80zM836 1710q0 43 34.5 76t77.5 33 q47 0 82 -33t35 -82q0 -47 -30.5 -80t-80.5 -33q-53 0 -85.5 33t-32.5 86z" />
<glyph unicode="&#xdf;" horiz-adv-x="1144" d="M-53 -2v68h30q51 0 70 6q37 12 43 42.5t6 71.5v60v841q0 199 125 291q111 82 316 82q180 0 294 -71q135 -86 136 -256q0 -141 -76 -213q-59 -55 -209 -103q182 0 281 -117q92 -109 92 -297q0 -201 -70 -303q-84 -125 -274 -125q-139 0 -200.5 65.5t-61.5 203.5h71 q0 -74 37 -130.5t109 -56.5q80 0 112 117q20 74 21 184q0 180 -49 281q-70 141 -230 141l-43 -2l-2 68q121 0 186.5 73.5t65.5 196.5q0 115 -41 184q-51 86 -158 86q-106 0 -148 -66.5t-42 -178.5v-989q0 -59 31 -76q4 -2 86 -17v-61q-31 0 -92.5 4t-92.5 4h-182 q-23 0 -80 -4t-61 -4z" />
<glyph unicode="&#xe0;" d="M0 215q0 178 125 250q96 55 289 55l147 -4v80q0 102 -22 156q-35 82 -125 82q-115 0 -143.5 -113t-112.5 -113q-41 0 -68 29t-27 72q0 121 142 168q86 29 241 28q201 0 283 -94q74 -86 74 -287l-6 -274q0 -109 20 -141q29 -47 131 -48v-63h-188q-76 0 -123 25 q-59 31 -70 100q-49 -70 -127 -108t-168 -38q-111 0 -191.5 63.5t-80.5 174.5zM178 1288q0 41 26.5 67.5t67.5 26.5q47 0 84 -39q23 -25 52 -79l106 -213l-55 -35q-82 61 -164 123q-117 96 -117 149zM233 233q0 -70 37 -116.5t107 -46.5q82 0 131 73q61 92 61 265l-2 43 l-92 2q-121 0 -181.5 -50.5t-60.5 -169.5z" />
<glyph unicode="&#xe1;" d="M-2 213q0 178 125 250q96 55 289 55l147 -4v80q0 102 -22 156q-35 82 -125 81q-115 0 -143.5 -112.5t-112.5 -112.5q-41 0 -68 29t-27 72q0 121 142 167q86 29 241 29q201 0 283 -94q74 -86 74 -287l-6 -274q0 -109 20 -142q29 -47 131 -47v-63h-188q-76 0 -123 24 q-59 31 -70 101q-49 -70 -127 -108t-168 -38q-111 0 -191.5 63.5t-80.5 174.5zM231 231q0 -70 37 -116.5t107 -46.5q82 0 131 73q61 92 61 265l-2 43l-92 2q-121 0 -181.5 -50.5t-60.5 -169.5zM309 1057l131 246q20 41 47 63.5t70 22.5q35 0 63.5 -27t28.5 -66 q0 -66 -164 -190q-61 -45 -120 -88z" />
<glyph unicode="&#xe2;" d="M0 215q0 178 125 250q96 55 289 55l147 -4v80q0 102 -22 156q-35 82 -125 82q-115 0 -143.5 -113t-112.5 -113q-41 0 -68 29t-27 72q0 121 142 168q86 29 241 28q201 0 283 -94q74 -86 74 -287l-6 -274q0 -109 20 -141q29 -47 131 -48v-63h-188q-76 0 -123 25 q-59 31 -70 100q-49 -70 -127 -108t-168 -38q-111 0 -191.5 63.5t-80.5 174.5zM156 1036l219 336h104l211 -336h-98l-166 234l-166 -234h-104zM233 233q0 -70 37 -116.5t107 -46.5q82 0 131 73q61 92 61 265l-2 43l-92 2q-121 0 -181.5 -50.5t-60.5 -169.5z" />
<glyph unicode="&#xe3;" d="M0 215q0 178 125 250q96 55 289 55l147 -4v80q0 102 -22 156q-35 82 -125 82q-115 0 -143.5 -113t-112.5 -113q-41 0 -68 29t-27 72q0 121 142 168q86 29 241 28q201 0 283 -94q74 -86 74 -287l-6 -274q0 -109 20 -141q29 -47 131 -48v-63h-188q-76 0 -123 25 q-59 31 -70 100q-49 -70 -127 -108t-168 -38q-111 0 -191.5 63.5t-80.5 174.5zM72 1094q0 109 37 184q49 100 145 100q70 0 192.5 -63.5t171.5 -63.5q37 0 62 38t25 79h67q0 -115 -39 -188q-51 -94 -151 -95q-66 0 -191 62.5t-162 62.5q-45 0 -65.5 -33.5t-20.5 -82.5h-71z M233 233q0 -70 37 -116.5t107 -46.5q82 0 131 73q61 92 61 265l-2 43l-92 2q-121 0 -181.5 -50.5t-60.5 -169.5z" />
<glyph unicode="&#xe4;" d="M6 211q0 178 115 250q90 57 278 57l166 -4l2 66q0 113 -22 170q-35 90 -129 90q-111 0 -143.5 -114t-98.5 -114q-49 0 -78.5 26t-29.5 75q0 117 139 164q92 31 239 30q176 0 261 -67q94 -76 94 -248v-379q0 -90 31.5 -122t119.5 -32v-57h-202q-72 0 -113 25 q-49 31 -66 96q-51 -43 -100 -86q-74 -55 -197 -55q-109 0 -184 59q-82 66 -82 170zM102 1223q0 51 37 83.5t88 32.5q39 0 73 -31.5t34 -68.5v-29q0 -41 -39 -70.5t-84 -29.5q-47 0 -78 33t-31 80zM238 242q0 -72 36.5 -121t108.5 -49q98 0 149 104q41 82 41 191l-4 86 l-73 4q-127 0 -187 -43q-72 -51 -71 -172zM539 1210v27q0 39 38.5 71.5t79.5 32.5q47 0 80 -36.5t33 -83.5t-36 -79t-85 -32q-33 0 -71.5 33t-38.5 67z" />
<glyph unicode="&#xe5;" d="M2 219q0 176 127 246q96 53 287 53l147 -4v39q0 121 -18 180q-33 104 -127 105q-117 0 -147.5 -115t-100.5 -115q-51 0 -77.5 31t-26.5 82q0 106 135 151q92 31 227 31q197 0 283 -74.5t86 -267.5v-368q0 -78 34.5 -107t112.5 -29v-61h-93t-91 -2q-84 0 -126 26.5 t-65 102.5q-76 -84 -138 -116t-167 -32q-106 0 -184 70t-78 174zM236 238q0 -70 38.5 -119t106.5 -49q104 0 151 112q35 82 35 205l2 66l-73 4q-133 0 -191 -41q-70 -49 -69 -178zM248 1204q0 90 50 146.5t140 56.5q78 0 131.5 -57.5t53.5 -135.5q0 -74 -57.5 -129 t-129.5 -55q-70 0 -129 51.5t-59 122.5zM336 1214q0 -41 32.5 -67.5t73.5 -26.5q35 0 61.5 27t26.5 63q0 45 -25.5 75t-70.5 30q-41 0 -69.5 -29t-28.5 -72z" />
<glyph unicode="&#xe6;" horiz-adv-x="1423" d="M-29 209q0 199 140 266q92 45 307 45h108l2 70q0 113 -18 162q-31 86 -123 86q-109 0 -139.5 -112t-104.5 -112q-51 0 -76.5 30t-25.5 81q0 98 119 147q86 35 202 35q113 0 171.5 -15t148.5 -73q119 82 254 82q190 0 308 -105.5t118 -293.5q0 -37 -16.5 -45t-59.5 -8 l-528 -3q0 -158 45 -260q63 -141 201 -141q92 0 172 53q66 43 133 127l59 -30q-145 -223 -414 -224q-123 0 -222 47.5t-165 143.5q-45 -94 -127 -140.5t-192 -46.5q-117 0 -193 58q-84 63 -84 176zM205 244q0 -78 31.5 -130.5t105.5 -52.5q125 0 166 144q23 80 22 246l-92 2 q-119 0 -176 -46.5t-57 -162.5zM758 516h293q68 0 67 80q0 78 -39 152q-47 88 -116 88q-102 0 -160 -115q-45 -90 -45 -205z" />
<glyph unicode="&#xe7;" horiz-adv-x="833" d="M37 428q0 227 129 356t356 129q121 0 209 -47q111 -59 111 -170q0 -49 -31 -77.5t-80 -28.5q-55 0 -77.5 39t-22.5 98q0 55 -24.5 88t-80.5 33q-129 0 -184 -154q-37 -104 -37 -264q0 -147 47 -244q63 -129 195 -129q84 0 158 58q61 49 108 131l59 -27 q-66 -129 -157.5 -189.5t-235.5 -60.5q-207 0 -324.5 126t-117.5 333zM129 -436l64 20q29 -59 63.5 -86.5t93.5 -27.5q51 0 82 54t31 109q0 92 -17 138q-29 76 -102 75q-51 0 -61.5 -77.5t-71.5 -77.5q-31 0 -49.5 24.5t-18.5 55.5q0 70 78 108q61 31 141 31q117 0 188 -75 t71 -195q0 -104 -76 -172t-183 -68q-78 0 -141 45t-92 119z" />
<glyph unicode="&#xe8;" d="M23 442q0 207 125.5 337t332.5 130q197 0 310.5 -109.5t113.5 -305.5q0 -27 -12 -37.5t-57 -10.5h-555q0 -197 73 -309q59 -90 154 -90q104 0 190 59q70 49 140 148l63 -33l-20 -24q-84 -119 -184.5 -172.5t-247.5 -53.5q-199 0 -312.5 133.5t-113.5 337.5zM180 1288 q0 41 26.5 67.5t67.5 26.5q47 0 84 -39q23 -25 52 -79l106 -213l-55 -35q-82 61 -164 123q-117 96 -117 149zM283 524h327l17 2q29 16 28 54v45q0 74 -45 141q-51 76 -123 76q-100 0 -157 -113q-47 -92 -47 -205z" />
<glyph unicode="&#xe9;" d="M20 440q0 207 126 337t333 130q197 0 310.5 -109.5t113.5 -305.5q0 -27 -12 -37.5t-57 -10.5h-555q0 -197 73 -309q59 -90 154 -90q104 0 190 59q70 49 140 148l63 -33l-20 -24q-84 -119 -184.5 -172.5t-248.5 -53.5q-199 0 -312.5 133.5t-113.5 337.5zM281 522h327l17 2 q29 16 28 54v45q0 74 -45 141q-51 76 -123 76q-100 0 -157 -113q-47 -92 -47 -205zM311 1057l131 246q20 41 47 63.5t70 22.5q35 0 63.5 -27t28.5 -66q0 -66 -164 -190q-61 -45 -120 -88z" />
<glyph unicode="&#xea;" d="M23 442q0 207 125.5 337t332.5 130q197 0 310.5 -109.5t113.5 -305.5q0 -27 -12 -37.5t-57 -10.5h-555q0 -197 73 -309q59 -90 154 -90q104 0 190 59q70 49 140 148l63 -33l-20 -24q-84 -119 -184.5 -172.5t-247.5 -53.5q-199 0 -312.5 133.5t-113.5 337.5zM158 1036 l219 336h104l211 -336h-98l-166 234l-166 -234h-104zM283 524h327l17 2q29 16 28 54v45q0 74 -45 141q-51 76 -123 76q-100 0 -157 -113q-47 -92 -47 -205z" />
<glyph unicode="&#xeb;" d="M25 442q0 207 125.5 337t332.5 130q197 0 310.5 -109.5t113.5 -305.5q0 -27 -12 -37.5t-57 -10.5h-555q0 -197 73 -309q59 -90 154 -90q104 0 190 59q70 49 140 148l63 -33l-20 -24q-84 -119 -184.5 -172.5t-247.5 -53.5q-199 0 -312.5 133.5t-113.5 337.5zM88 1223 q0 53 36 84.5t91 31.5q47 0 77 -33.5t30 -80.5q0 -43 -32 -79t-75 -36h-31q-41 0 -68.5 35t-27.5 78zM285 524h327l17 2q29 16 28 54v45q0 74 -45 141q-51 76 -123 76q-100 0 -157 -113q-47 -92 -47 -205zM528 1233q0 43 36 76.5t77 33.5q49 0 84 -36.5t35 -83.5 q0 -45 -36 -79t-83 -34q-53 0 -83 36t-30 87z" />
<glyph unicode="&#xec;" horiz-adv-x="552" d="M4 1286q0 43 26.5 69.5t69.5 26.5q47 0 82 -39q18 -20 49 -79l109 -213l-53 -35q-84 61 -166 123q-117 94 -117 147zM12 0v61q106 0 129 25t23 135v467q0 86 -29 105.5t-121 19.5v66l385 10v-682q0 -100 25 -123t121 -23l-2 -65q-51 0 -169 4t-128 4z" />
<glyph unicode="&#xed;" horiz-adv-x="552" d="M2 2v61q106 0 129 25t23 135v467q0 86 -29 105.5t-121 19.5v66l385 10v-682q0 -100 24.5 -123t121.5 -23l-3 -65q-51 0 -168.5 4t-127.5 4zM127 1057l127 246q23 41 48.5 62t66.5 21t68.5 -23.5t27.5 -64.5q0 -68 -160 -190q-61 -45 -121 -90z" />
<glyph unicode="&#xee;" horiz-adv-x="552" d="M-12 1036l219 336h104l211 -336h-98l-166 234l-164 -234h-106zM20 0v61q106 0 129 25t23 135v467q0 86 -28.5 105.5t-120.5 19.5v66l385 10v-682q0 -100 24.5 -123t120.5 -23l-2 -65q-51 0 -169 4t-128 4z" />
<glyph unicode="&#xef;" horiz-adv-x="552" d="M-80 1223q0 53 38 84.5t91 31.5q45 0 76 -34.5t31 -79.5q0 -43 -32 -79t-75 -36h-33q-37 0 -66.5 38t-29.5 75zM23 -2v61q106 0 128.5 25t22.5 135v467q0 86 -28.5 105.5t-120.5 19.5v66l385 10v-682q0 -100 24.5 -123t120.5 -23l-2 -65q-51 0 -169 4t-128 4zM360 1233 q0 41 37 75.5t78 34.5t80 -36.5t39 -79.5q0 -49 -35 -84t-84 -35q-53 0 -84 37t-31 88z" />
<glyph unicode="&#xf1;" horiz-adv-x="1105" d="M-45 2v55h37q66 0 87 19.5t21 97.5l6 293l5 129q0 80 -7 117q-14 84 -52 92t-75 8h-22v64l385 8v-203q76 115 145 162q84 57 209 57q121 0 185 -86q55 -76 55 -203v-460q2 -18 4 -37q14 -37 40 -45.5t75 -8.5h30l-2 -65l-262 8l-258 -6v61q96 10 115.5 27.5t19.5 116.5 v348q0 96 -18 151q-31 90 -109 91q-106 0 -180 -152q-61 -127 -61 -248v-243q0 -49 27.5 -71t121.5 -22v-59q-45 0 -150.5 4t-113.5 4zM141 1094q0 106 37 184q48 100 144 100q72 0 194.5 -63.5t169.5 -63.5q39 0 64 41q18 31 24 76h64q0 -115 -37 -188q-47 -94 -154 -95 q-63 0 -188 62.5t-162 62.5q-45 0 -62.5 -30.5t-25.5 -85.5h-68z" />
<glyph unicode="&#xf2;" horiz-adv-x="1071" d="M16 430q0 231 143.5 353t379.5 122q205 0 333.5 -129t128.5 -334q0 -223 -136 -345t-363 -122q-213 0 -346 119q-139 125 -140 336zM240 1288q0 41 26.5 67.5t67.5 26.5q61 0 96 -53q8 -12 35 -65l108 -213l-53 -35q-84 61 -166 123q-115 94 -114 149zM281 436 q0 -211 71 -313q60 -86 166 -86q129 0 182 145q35 96 35 256q0 164 -35 256q-55 145 -190 146q-131 0 -188 -146q-41 -104 -41 -258z" />
<glyph unicode="&#xf3;" horiz-adv-x="1071" d="M16 430q0 231 143.5 353t379.5 122q205 0 333.5 -129t128.5 -334q0 -223 -136 -345t-363 -122q-213 0 -346 119q-139 125 -140 336zM281 436q0 -211 71 -313q60 -86 166 -86q129 0 182 145q35 96 35 256q0 164 -35 256q-55 145 -190 146q-131 0 -188 -146 q-41 -104 -41 -258zM369 1057l131 246q25 49 48.5 66t74.5 17q37 0 60.5 -25.5t23.5 -60.5q0 -70 -160 -192q-61 -45 -121 -90z" />
<glyph unicode="&#xf4;" horiz-adv-x="1071" d="M16 430q0 231 143.5 353t379.5 122q205 0 333.5 -129t128.5 -334q0 -223 -136 -345t-363 -122q-213 0 -346 119q-139 125 -140 336zM213 1036l221 336h105l209 -336h-97l-166 234l-166 -234h-106zM281 436q0 -211 71 -313q60 -86 166 -86q129 0 182 145q35 96 35 256 q0 164 -35 256q-55 145 -190 146q-131 0 -188 -146q-41 -104 -41 -258z" />
<glyph unicode="&#xf5;" horiz-adv-x="1071" d="M16 430q0 231 143.5 353t379.5 122q205 0 333.5 -129t128.5 -334q0 -223 -136 -345t-363 -122q-213 0 -346 119q-139 125 -140 336zM129 1094q0 109 37 184q49 100 147 100q72 0 195 -63.5t168 -63.5q41 0 63 39q12 23 27 78h65q-20 -143 -40 -188q-43 -94 -152 -95 q-63 0 -188 62.5t-162 62.5q-47 0 -66.5 -34.5t-19.5 -81.5h-74zM281 436q0 -211 71 -313q60 -86 166 -86q129 0 182 145q35 96 35 256q0 164 -35 256q-55 145 -190 146q-131 0 -188 -146q-41 -104 -41 -258z" />
<glyph unicode="&#xf6;" horiz-adv-x="1071" d="M20 430q0 219 138.5 347t357.5 128q223 0 353 -122t130 -343q0 -223 -134 -345t-361 -122q-217 0 -350.5 121t-133.5 336zM176 1239q0 43 38 72.5t83 29.5q49 0 80 -34.5t31 -83.5q0 -47 -37 -78t-84 -31q-51 0 -81 36t-30 89zM283 432q0 -154 41 -252q59 -141 190 -141 q133 0 186 141q37 98 37 256q0 162 -37 258q-55 145 -188 146q-135 0 -190 -146q-39 -100 -39 -262zM610 1229q0 49 38 80.5t87 31.5q47 0 78 -34.5t31 -81.5q0 -41 -33 -76t-76 -35q-53 0 -89 32t-36 83z" />
<glyph unicode="&#xf7;" horiz-adv-x="980" d="M-47 465v106h1034v-106h-1034zM350 250q0 45 31 77.5t78 32.5q45 0 77.5 -32.5t32.5 -77.5t-32.5 -78t-77.5 -33q-43 0 -76 33t-33 78zM350 786q0 45 31 78t78 33q45 0 77.5 -33t32.5 -78t-32.5 -77.5t-77.5 -32.5q-43 0 -76 32.5t-33 77.5z" />
<glyph unicode="&#xf8;" horiz-adv-x="1071" d="M16 408q0 244 137.5 370.5t383.5 126.5q70 0 126 -16.5t132 -52.5l84 94l59 -51l-86 -84q76 -61 111.5 -151.5t35.5 -194.5q0 -221 -131 -348.5t-354 -127.5q-96 0 -157.5 15.5t-151.5 62.5l-94 -110l-54 53l88 104q-68 86 -94 144q-35 74 -35 166zM279 473q0 -74 3 -113 t15 -92l399 459q-45 61 -78 84q-45 31 -110 31q-129 0 -186 -127q-43 -94 -43 -242zM317 184q47 -149 197 -149q143 0 195 153q31 92 30 275q0 39 -2 63.5t-14 112.5q-133 -156 -199 -231q-106 -123 -207 -224z" />
<glyph unicode="&#xf9;" horiz-adv-x="1071" d="M-78 815v64l150 -2q53 0 88 2q135 8 147 8v-613q0 -72 23 -114q31 -57 96 -58q150 0 203 230q31 131 30 350q0 78 -28.5 104.5t-106.5 26.5v61h84q47 0 141.5 4.5t141.5 4.5v-688q0 -92 24.5 -112t120.5 -20v-65h-374l-11 182q-117 -121 -143 -141q-80 -59 -191 -59 q-129 0 -186 70.5t-57 201.5v438q0 86 -31 105.5t-121 19.5zM231 1288q0 41 27 67.5t68 26.5q61 0 96 -53q8 -12 35 -65l108 -213l-53 -35q-84 61 -166 123q-115 94 -115 149z" />
<glyph unicode="&#xfa;" horiz-adv-x="1071" d="M-78 815v64l150 -2q53 0 88 2q135 8 147 8v-613q0 -72 23 -114q31 -57 96 -58q150 0 203 230q31 131 30 350q0 78 -28.5 104.5t-106.5 26.5v61h84q47 0 141.5 4.5t141.5 4.5v-688q0 -92 24.5 -112t120.5 -20v-65h-374l-11 182q-117 -121 -143 -141q-80 -59 -191 -59 q-129 0 -186 70.5t-57 201.5v438q0 86 -31 105.5t-121 19.5zM360 1057l132 246q25 49 48 66t74 17q37 0 60.5 -25.5t23.5 -60.5q0 -70 -159 -192q-61 -45 -121 -90z" />
<glyph unicode="&#xfb;" horiz-adv-x="1071" d="M-78 815v64l150 -2q53 0 88 2q135 8 147 8v-613q0 -72 23 -114q31 -57 96 -58q150 0 203 230q31 131 30 350q0 78 -28.5 104.5t-106.5 26.5v61h84q47 0 141.5 4.5t141.5 4.5v-688q0 -92 24.5 -112t120.5 -20v-65h-374l-11 182q-117 -121 -143 -141q-80 -59 -191 -59 q-129 0 -186 70.5t-57 201.5v438q0 86 -31 105.5t-121 19.5zM205 1036l221 336h104l209 -336h-96l-166 234l-166 -234h-106z" />
<glyph unicode="&#xfc;" horiz-adv-x="1071" d="M-76 817v60l168 -3h27h24q41 0 82 2.5t82 8.5v-582q0 -92 21 -137q31 -66 112 -66q117 0 176 168q43 121 43 267l-4 165q0 76 -26 95q-14 10 -103 18v61h88q45 0 135.5 4.5t135.5 4.5v-713q0 -78 39 -98q27 -14 108 -15v-61h-370l-11 203q-55 -102 -143 -162t-201 -60 q-125 0 -179 73t-54 202v422q0 100 -29 119q-6 4 -121 24zM131 1239q0 43 40 71.5t85 28.5q43 0 74.5 -33.5t31.5 -78.5q0 -43 -33.5 -79t-78.5 -36q-119 0 -119 127zM569 1231q0 47 38 77.5t87 30.5t77 -35.5t28 -86.5q0 -41 -38 -73t-83 -32q-47 0 -78 35t-31 84z" />
<glyph unicode="&#xff;" d="M-61 817v66l292 -9l228 7l2 -62l-31 -2q-33 0 -55.5 -8t-22.5 -35q0 -66 76 -254q55 -133 111 -264l159 457q14 39 15 71q0 20 -20.5 27.5t-53.5 7.5q-23 0 -31 -2v64l160 -4l184 4l-2 -62h-24q-57 0 -83 -23.5t-48 -82.5l-131 -334q-59 -145 -138 -395q-25 -80 -76 -246 t-83 -219q-70 -113 -197 -113l-49 -2q-63 0 -117 39q-61 45 -61 104q0 113 110 113q61 0 84 -53q14 -35 15 -107q0 -29 38 -28q80 0 156 206q55 154 72 285q-6 23 -13.5 48.5t-13.5 37.5l-301 686q-23 53 -53.5 67.5t-97.5 14.5zM80 1223q0 53 36 84.5t91 31.5 q47 0 76.5 -33.5t29.5 -80.5q0 -43 -31.5 -79t-74.5 -36h-31q-41 0 -68.5 35t-27.5 78zM520 1233q0 43 36 76.5t77 33.5q49 0 84 -36.5t35 -83.5q0 -45 -36 -79t-83 -34q-53 0 -83 36t-30 87z" />
<glyph unicode="&#x152;" horiz-adv-x="2099" d="M-35 680q0 344 158 547q174 223 512 223q74 0 174 -6q233 -14 293 -14l416 -3q72 0 217 6.5t219 6.5v-400h-70q-31 188 -145 258q-96 59 -297 60q-94 0 -127 -19q-51 -29 -51 -112v-367q0 -70 17 -87t91 -17q141 0 199 75q51 68 51 216h64v-641l-64 -3l-2 43 q0 123 -63.5 176.5t-188.5 53.5q-47 0 -74.5 -13.5t-27.5 -56.5v-385q0 -96 51 -123q33 -16 139 -16q240 0 344 53q141 72 199 281l63 -2q0 -121 -12 -244t-16 -174l-578 6h-287q-80 0 -323 -14q-139 -8 -197 -8q-322 0 -503 187t-181 513zM270 715q0 -377 127 -531 q107 -129 308 -129q188 0 249 78q53 68 54 262v486l2 168q0 168 -49 239q-61 90 -224 90q-268 0 -381 -209q-86 -160 -86 -454z" />
<glyph unicode="&#x153;" horiz-adv-x="1624" d="M-12 428q0 248 145 369q135 113 387 112q78 0 156 -37.5t137 -97.5q76 72 149 100.5t179 28.5q182 0 298.5 -106.5t116.5 -288.5q0 -39 -12 -49t-43 -10h-22h-539q0 -158 49 -263q68 -143 203 -143q92 0 174 53q68 45 135 131l66 -37q-100 -121 -185 -167 q-98 -55 -241 -56q-92 0 -180 29q-104 35 -156 94q-100 -68 -158 -90q-76 -31 -182 -31q-217 0 -344 119q-133 125 -133 340zM240 438q0 -209 71 -317q60 -88 162 -88q129 0 182 149q35 98 35 260q0 152 -37 252q-55 152 -180 152q-137 0 -194 -146q-39 -98 -39 -262z M934 516l278 4q55 0 70 6q29 13 29 58q0 90 -39 164q-49 92 -131 92q-104 0 -158 -115q-37 -78 -49 -209z" />
<glyph unicode="&#x178;" horiz-adv-x="1306" d="M-94 1372v64l379 -6l288 4l2 -62q-68 0 -96 -8q-59 -16 -59 -66q0 -59 186 -362q61 -100 125 -201q94 172 154 289q117 227 116 281q0 49 -53 58t-88 9h-20l-2 62l219 -4l252 4l-2 -64q-16 0 -23 -4q-104 -14 -164 -109q-41 -74 -63 -112q-61 -104 -144 -252 q-59 -109 -137 -256v-399q0 -125 43 -154q31 -20 166 -21l-2 -65q-37 0 -126 4t-95 4h-225q-39 0 -119 -6t-121 -6v65q131 0 164 21q49 31 49 153v375l-367 609q-53 90 -94 118q-51 37 -143 37zM233 1708q0 45 39 74.5t86 29.5t77 -35.5t30 -84.5t-38 -77t-87 -28 q-47 0 -77 36t-30 85zM694 1706q0 47 38 79t87 32q43 0 74 -33t31 -76q0 -53 -30 -87t-83 -34q-47 0 -82 35t-35 84z" />
<glyph unicode="&#x2c6;" horiz-adv-x="0" d="M-272 1036l219 336h104l211 -336h-96l-168 234l-166 -234h-104z" />
<glyph unicode="&#x2dc;" horiz-adv-x="0" d="M-360 1094q23 145 41 186q43 98 147 98q70 0 192.5 -63.5t167.5 -63.5q43 0 66 39q10 18 25 78h65q0 -113 -39 -186q-51 -96 -153 -97q-63 0 -188.5 62.5t-162.5 62.5q-45 0 -65 -36q-12 -23 -21 -80h-75z" />
<glyph unicode="&#x2000;" horiz-adv-x="966" />
<glyph unicode="&#x2001;" horiz-adv-x="1933" />
<glyph unicode="&#x2002;" horiz-adv-x="966" />
<glyph unicode="&#x2003;" horiz-adv-x="1933" />
<glyph unicode="&#x2004;" horiz-adv-x="644" />
<glyph unicode="&#x2005;" horiz-adv-x="483" />
<glyph unicode="&#x2006;" horiz-adv-x="322" />
<glyph unicode="&#x2007;" horiz-adv-x="322" />
<glyph unicode="&#x2008;" horiz-adv-x="241" />
<glyph unicode="&#x2009;" horiz-adv-x="386" />
<glyph unicode="&#x200a;" horiz-adv-x="107" />
<glyph unicode="&#x2010;" horiz-adv-x="673" d="M23 379v162h598v-162h-598z" />
<glyph unicode="&#x2011;" horiz-adv-x="673" d="M23 379v162h598v-162h-598z" />
<glyph unicode="&#x2012;" horiz-adv-x="673" d="M23 379v162h598v-162h-598z" />
<glyph unicode="&#x2013;" horiz-adv-x="989" d="M0 391v137h936v-137h-936z" />
<glyph unicode="&#x2014;" horiz-adv-x="1267" d="M-90 516v162h1364v-162h-1364z" />
<glyph unicode="&#x2018;" horiz-adv-x="552" d="M123 1022q0 100 39 188t178 246l53 -49q-55 -47 -107.5 -149.5t-52.5 -172.5q0 -53 33 -53q10 0 42 7.5t48 7.5q53 0 83 -37t30 -92t-49 -93.5t-107 -38.5q-88 0 -139 73t-51 163z" />
<glyph unicode="&#x2019;" horiz-adv-x="552" d="M88 1300q0 72 42 112t116 40q86 0 139 -76q47 -68 47 -159q0 -115 -63 -234q-53 -98 -148 -199l-59 50q53 53 109.5 155.5t56.5 165.5q0 14 -11.5 35.5t-25.5 21.5q-18 0 -50 -9t-44 -9q-39 0 -74 33t-35 73z" />
<glyph unicode="&#x201a;" horiz-adv-x="501" d="M68 115q0 68 49 105.5t119 37.5q82 0 133 -82q45 -72 45 -160q0 -94 -37 -180q-45 -106 -176 -252l-56 47q57 70 103 148q59 104 59 168q0 20 -7 41.5t-26 21.5q-16 0 -46.5 -8t-47.5 -8q-47 0 -79.5 37t-32.5 84z" />
<glyph unicode="&#x201c;" d="M94 1022q0 121 62 235q51 94 151 195l55 -45q-57 -57 -106 -147q-55 -102 -55 -173q0 -14 9 -34.5t21 -20.5t41 8.5t43 8.5q41 0 82 -33t41 -74q0 -72 -41 -115t-112 -43q-88 0 -139.5 73t-51.5 165zM520 1018q0 119 64 237q53 102 149 201l60 -49q-51 -43 -107.5 -150.5 t-56.5 -173.5q0 -41 35 -51q18 4 38.5 10.5t34.5 6.5q127 0 127 -117q0 -66 -43 -105t-110 -39q-86 0 -138.5 70t-52.5 160z" />
<glyph unicode="&#x201d;" d="M53 1296q0 74 43 115t117 41q88 0 141 -76q47 -68 47 -159q0 -123 -63 -238q-45 -80 -152 -197l-55 49q90 129 102 150q59 98 60 166q0 23 -8.5 43t-24.5 20t-46 -9t-42 -9q-41 0 -80 30.5t-39 73.5zM483 1309q0 66 44 105.5t112 39.5q90 0 143 -76q47 -68 47 -161 q0 -117 -65 -234q-43 -76 -146 -197l-61 52q74 90 109 149q55 94 55 174q0 14 -9.5 32.5t-23.5 18.5q-10 0 -55 -10q-18 -4 -35 -4q-43 0 -79 34t-36 77z" />
<glyph unicode="&#x201e;" d="M49 109q0 66 45 108.5t113 42.5q86 0 141 -78q49 -70 49 -162q0 -125 -63 -237q-49 -86 -154 -199l-55 49q86 117 104 146q57 92 58 168q0 18 -8.5 40.5t-24.5 22.5t-44 -9t-38 -9q-45 0 -84 34.5t-39 82.5zM475 104q0 66 44 108t110 42q88 0 141 -68.5t53 -160.5 q0 -145 -96 -291q-31 -47 -117 -152l-57 49q88 111 124 184.5t36 129.5q0 25 -6.5 45t-22.5 20t-46 -9t-42 -9q-45 0 -83 33.5t-38 78.5z" />
<glyph unicode="&#x2022;" horiz-adv-x="681" d="M74 723q0 109 81 187.5t191 78.5q111 0 186.5 -77.5t75.5 -188.5q0 -113 -74.5 -189.5t-187.5 -76.5q-111 0 -191.5 78.5t-80.5 187.5z" />
<glyph unicode="&#x2026;" horiz-adv-x="2048" d="M236 0v217h213v-217h-213zM918 0v217h212v-217h-212zM1599 0v217h213v-217h-213z" />
<glyph unicode="&#x202f;" horiz-adv-x="386" />
<glyph unicode="&#x2039;" horiz-adv-x="681" d="M180 473v189l322 251v-180l-215 -166l215 -166v-180z" />
<glyph unicode="&#x203a;" horiz-adv-x="681" d="M180 221v180l215 166l-215 166v180l322 -251v-189z" />
<glyph unicode="&#x205f;" horiz-adv-x="483" />
<glyph unicode="&#x2122;" horiz-adv-x="1591" d="M-80 1133l6 190h623l6 -190l-35 -3v17q0 88 -74 117q-43 16 -149 16v-614q0 -27 21.5 -40.5t76.5 -13.5v-37h-315v37q57 0 78.5 12.5t21.5 41.5l-2 614q-111 0 -151 -18q-70 -31 -70 -132zM612 1288v35h226l258 -565l247 565h222v-35h-19q-37 0 -57.5 -9t-20.5 -40v-573 q0 -27 21.5 -40.5t77.5 -13.5v-37h-316v37q57 0 79 12.5t22 41.5v544l-262 -635h-37l-283 605v-514q0 -35 35 -48q18 -6 65 -6v-37h-254v37q57 0 79 12.5t22 41.5v553q0 51 -24.5 60t-53.5 9h-27z" />
<glyph unicode="&#x25fc;" horiz-adv-x="880" d="M0 0v881h881v-881h-881z" />
</font>
</defs>
</svg>
